<?xml version="1.0" encoding="UTF-8"?>
<svg width="24px" height="24px" viewBox="0 0 24 24" version="1.1" xmlns="http://www.w3.org/2000/svg" xmlns:xlink="http://www.w3.org/1999/xlink">
    <title>52B53969-405E-436A-8B11-E1A71C040A8F</title>
    <g id="Page-1" stroke="none" stroke-width="1" fill="none" fill-rule="evenodd">
        <g id="D_Catalogo" transform="translate(-261.000000, -1554.000000)" fill="#FFFFFF">
            <g id="Footer/completo/desktop" transform="translate(0.000000, 1433.000000)">
                <g id="icon/contact/phone" transform="translate(261.000000, 121.000000)">
                    <path d="M8.84325002,1.13505983 L7.80736601,1.48570515 C6.51817862,1.92193535 5.53934698,3.08183027 5.22557023,4.52780606 C4.57379339,7.53043666 5.33816524,11.1051144 7.47080408,15.2525755 C9.60553224,19.404108 11.9864241,21.9443858 14.6506781,22.8247275 C15.9602468,23.2574641 17.3757146,22.8751911 18.3591847,21.8295757 L19.1456915,20.9933846 C20.1407487,19.9351903 20.2832903,18.2323328 19.4852087,16.9903559 L18.3001336,15.1463145 L18.1909952,14.9875941 C17.4742272,14.0122055 16.2817883,13.6077014 15.180221,13.9966596 L13.3895442,14.6288998 L13.4122452,14.6496436 C12.7488319,14.0593382 12.1842673,13.3408403 11.7174092,12.490536 L11.5506181,12.1721773 C11.2327699,11.5351736 11.0092325,10.8963764 10.878347,10.2544154 L10.826127,9.96621059 L12.3607843,8.42462824 C13.2498571,7.5312489 13.5181632,6.11018417 13.0337253,4.8995692 L12.2072951,2.83450128 C11.6394005,1.41553734 10.1992945,0.677817187 8.84325002,1.13505983 Z M10.7908828,3.47054818 L11.6172909,5.53556095 C11.8532069,6.12511735 11.7219362,6.82038332 11.3018929,7.24246123 L9.75761584,8.79476902 C9.39915225,9.15560329 9.22202714,9.67935718 9.30263714,10.1980165 C9.46729228,11.256333 9.83014019,12.2943 10.3874783,13.3097099 C10.9423017,14.3202282 11.6211853,15.1842151 12.4230284,15.8976952 C12.8235505,16.2537019 13.3724698,16.353578 13.8657853,16.1790423 L15.6669039,15.5425666 C16.1656742,15.3664532 16.7111902,15.5697946 17.028416,16.0633626 L18.2134504,17.9073407 C18.597987,18.5057577 18.5280687,19.3410294 18.0557784,19.8432869 L17.2693381,20.6794072 C16.6873216,21.2982012 15.8672403,21.5196792 15.1088179,21.2690645 C12.8907115,20.536142 10.7832661,18.2876163 8.82183278,14.4731005 C6.85298659,10.644176 6.16990529,7.44966349 6.7248943,4.89291876 C6.91880354,3.99932781 7.51203097,3.29636578 8.27558504,3.03799733 L9.31072326,2.68760392 C9.89618884,2.49019218 10.5280755,2.81388744 10.7908828,3.47054818 Z" id="Path"></path>
                </g>
            </g>
        </g>
    </g>
</svg>