<?xml version="1.0" encoding="UTF-8"?>
<svg width="106px" height="34px" viewBox="0 0 106 34" version="1.1" xmlns="http://www.w3.org/2000/svg" xmlns:xlink="http://www.w3.org/1999/xlink">
    <title>760F12D4-92F1-4D8C-94DE-712830C9CAFD</title>
    <defs>
        <path d="M0.390174858,0 L11.8403418,11.1332451 L0.293591431,22.3598153 C0.114561359,22.3009517 0,22.1276232 0,21.8731247 L0,21.8731247 L0,0.606537366" id="path-1"></path>
        <linearGradient x1="29.5954342%" y1="-1.59796556%" x2="29.5954342%" y2="101.176441%" id="linearGradient-3">
            <stop stop-color="#87C8B2" offset="0%"></stop>
            <stop stop-color="#2C729D" offset="100%"></stop>
        </linearGradient>
        <path d="M0,0.0212594789 C0.181226603,-0.0285313425 0.406175911,0.00885136479 0.63152687,0.13642449 L0.6207503,0.130531273 L4.56330547,2.36251647 C4.69873576,2.43919749 4.8349456,2.51631999 4.97145656,2.59361308 L5.17308383,2.70777537 L5.17308383,2.70777537 L5.43324004,2.85507718 L5.43324004,2.85507718 L5.70169681,3.00707902 C7.84472947,4.22047772 9.85088247,5.3563921 9.85088247,5.3563921 L9.85088247,5.3563921 L14.6304985,8.06219148 L11.4501669,11.1545046" id="path-4"></path>
        <linearGradient x1="-0.000310804585%" y1="23.9090051%" x2="75.0895589%" y2="23.9090051%" id="linearGradient-6">
            <stop stop-color="#53B8A0" offset="0%"></stop>
            <stop stop-color="#DBE596" offset="100%"></stop>
        </linearGradient>
        <path d="M11.5467503,0 L14.7268747,3.09190669 L9.94746589,5.79750285 C9.94746589,5.79750285 9.83872023,5.8590711 9.64456128,5.96899824 L9.53032589,6.03367502 C8.75496348,6.47266318 7.01091525,7.46009918 5.26008495,8.45141242 L4.98372194,8.60788839 C3.53649661,9.42730506 2.11929518,10.2297498 1.27719774,10.706632 L1.1576118,10.7743547 C1.13544738,10.7869068 1.11376343,10.799187 1.09257226,10.8111881 L0.510096251,11.1411183 C0.316834111,11.2489776 0.138989051,11.2722686 0,11.2265702" id="path-7"></path>
        <linearGradient x1="37.5441578%" y1="49.7896003%" x2="37.5441578%" y2="101.549612%" id="linearGradient-9">
            <stop stop-color="#7D4589" offset="0%"></stop>
            <stop stop-color="#DA3E3E" offset="100%"></stop>
        </linearGradient>
        <path d="M3.18033159,0 C3.27257882,0.0525988292 7.3571597,2.38149859 7.80679596,2.61923006 C8.26169156,2.85942945 8.31350199,3.27805105 7.77446625,3.58348226 L7.77757488,3.58165333 L7.19654979,3.91058634 C7.13514269,3.94534563 7.07032639,3.98203504 7.00257209,4.02038781 L6.63297182,4.2296048 C6.61479431,4.23989451 6.59649592,4.25025266 6.57808301,4.26067564 L5.09325205,5.10120936 C5.04873843,5.12640799 5.00443345,5.15148854 4.96040514,5.17641248 L4.25146431,5.5777378 C4.19367281,5.6104532 4.13735618,5.64233371 4.08274071,5.67325123 L3.92407541,5.76307086 C3.8474683,5.80643779 3.77521348,5.84734096 3.70807864,5.88534577 L3.25706958,6.1406611 C3.25080915,6.14420513 3.24490887,6.14754527 3.23937686,6.15067694 L3.20876696,6.16800521 C3.20484659,6.17022453 3.20131541,6.17222354 3.19818164,6.17399756 L3.18012435,6.18421981 L0,3.09231312" id="path-10"></path>
        <linearGradient x1="80.7936518%" y1="35.986719%" x2="80.7936518%" y2="63.5904861%" id="linearGradient-12">
            <stop stop-color="#F7C374" offset="0%"></stop>
            <stop stop-color="#E88172" offset="100%"></stop>
        </linearGradient>
    </defs>
    <g id="Page-1" stroke="none" stroke-width="1" fill="none" fill-rule="evenodd">
        <g id="D_Categoria_Detalle" transform="translate(-1080.000000, -1251.000000)">
            <g id="componentes/footer/completo/desktop" transform="translate(0.000000, 1169.000000)">
                <g id="Group-2" transform="translate(1080.000000, 82.000000)">
                    <path d="M101.315301,34 L4.68573551,34 C2.09811527,34 0,31.9422513 0,29.4049166 L0,4.59467698 C0,2.05754553 2.09811527,0 4.68573551,0 L101.315301,0 C103.902506,0 106,2.05754553 106,4.59467698 L106,29.4049166 C106,31.9422513 103.902506,34 101.315301,34 Z" id="Fill-62" fill="#1A1919"></path>
                    <g id="Group" transform="translate(7.950829, 6.849544)">
                        <g id="Group-101" transform="translate(0.000000, 0.075450)">
                            <mask id="mask-2" fill="white">
                                <use xlink:href="#path-1"></use>
                            </mask>
                            <g id="Clip-100"></g>
                            <path d="M15.0206733,8.040932 L10.2410573,5.33513262 C10.2410573,5.33513262 1.53379604,0.404948708 1.02170173,0.115165011 C0.509814656,-0.174618685 0,0.000958533696 0,0.606537366 C0,1.61549673 0,11.1330419 0,11.1330419 C0,11.1330419 0,21.4187374 0,21.8731247 C0,22.3271056 0.364538203,22.5228011 0.809278955,22.2712217 C1.25381247,22.0190327 10.2410573,16.930748 10.2410573,16.930748 L15.0204661,14.2251518 C15.0204661,14.2251518 19.0757723,11.929439 19.614808,11.6244143 C20.1538437,11.3189831 20.1020333,10.9003614 19.6471377,10.6601621 C19.1924494,10.4197594 15.0206733,8.040932 15.0206733,8.040932" id="Fill-99" fill="url(#linearGradient-3)" mask="url(#mask-2)"></path>
                        </g>
                        <g id="Group-104" transform="translate(0.390175, 0.054191)">
                            <mask id="mask-5" fill="white">
                                <use xlink:href="#path-4"></use>
                            </mask>
                            <g id="Clip-103"></g>
                            <path d="M14.6304985,8.06219148 L9.85088247,5.3563921 C9.85088247,5.3563921 1.14362118,0.426208187 0.63152687,0.13642449 C0.119639798,-0.153359206 -0.390174858,0.0222180126 -0.390174858,0.627796845 C-0.390174858,1.63675621 -0.390174858,11.1543014 -0.390174858,11.1543014 C-0.390174858,11.1543014 -0.390174858,21.4399969 -0.390174858,21.8943842 C-0.390174858,22.3483651 -0.0256366551,22.5440606 0.419104097,22.2924812 C0.863637608,22.0402921 9.85088247,16.9520074 9.85088247,16.9520074 L14.6302912,14.2464113 C14.6302912,14.2464113 18.6855974,11.9506985 19.2246332,11.6456737 C19.7636689,11.3402425 19.7118585,10.9216209 19.2569629,10.6814215 C18.8022745,10.4410189 14.6304985,8.06219148 14.6304985,8.06219148" id="Fill-102" fill="url(#linearGradient-6)" mask="url(#mask-5)"></path>
                        </g>
                        <g id="Group-107" transform="translate(0.293591, 11.208695)">
                            <mask id="mask-8" fill="white">
                                <use xlink:href="#path-7"></use>
                            </mask>
                            <g id="Clip-106"></g>
                            <path d="M14.7270819,-3.09231312 L9.94746589,-5.7981125 C9.94746589,-5.7981125 1.24020461,-10.7282964 0.728110298,-11.0180801 C0.216223225,-11.3078638 -0.293591431,-11.1322866 -0.293591431,-10.5267077 C-0.293591431,-9.51774838 -0.293591431,-0.000203214373 -0.293591431,-0.000203214373 C-0.293591431,-0.000203214373 -0.293591431,10.2854923 -0.293591431,10.7398796 C-0.293591431,11.1938605 0.0709467722,11.389556 0.515687525,11.1379766 C0.960221035,10.8857875 9.94746589,5.79750285 9.94746589,5.79750285 L14.7268747,3.09190669 C14.7268747,3.09190669 18.7821808,0.796193914 19.3212166,0.49116914 C19.8602523,0.185737937 19.8084419,-0.232883672 19.3535463,-0.473083061 C18.8988579,-0.713485664 14.7270819,-3.09231312 14.7270819,-3.09231312" id="Fill-105" fill="url(#linearGradient-9)" mask="url(#mask-8)"></path>
                        </g>
                        <g id="Group-110" transform="translate(11.840342, 8.116382)">
                            <mask id="mask-11" fill="white">
                                <use xlink:href="#path-10"></use>
                            </mask>
                            <g id="Clip-109"></g>
                            <path d="M3.18033159,-2.77111667e-13 L-1.59928443,-2.70579938 C-1.59928443,-2.70579938 -10.3065457,-7.63598329 -10.81864,-7.92576698 C-11.3305271,-8.21555068 -11.8403418,-8.03997346 -11.8403418,-7.43439463 C-11.8403418,-6.42543527 -11.8403418,3.0921099 -11.8403418,3.0921099 C-11.8403418,3.0921099 -11.8403418,13.3778054 -11.8403418,13.8321927 C-11.8403418,14.2861737 -11.4758036,14.4818691 -11.0310628,14.2302897 C-10.5865293,13.9781007 -1.59928443,8.88981597 -1.59928443,8.88981597 L3.18012435,6.18421981 C3.18012435,6.18421981 7.23543052,3.88850703 7.77446625,3.58348226 C8.31350199,3.27805105 8.26169156,2.85942945 7.80679596,2.61923006 C7.35210761,2.37882745 3.18033159,-2.77111667e-13 3.18033159,-2.77111667e-13" id="Fill-108" fill="url(#linearGradient-12)" mask="url(#mask-11)"></path>
                        </g>
                        <path d="M74.393771,9.63032915 C73.6959881,9.63032915 73.1915617,9.81992816 72.8800774,10.1985165 C72.5685931,10.5775113 72.4083952,11.1802452 72.3998983,12.0073277 L72.3998983,12.2330988 C72.3998983,13.1741846 72.5600962,13.8472306 72.8800774,14.2526433 C73.2000587,14.6578527 73.7129819,14.8602543 74.4188473,14.8602543 C75.0088645,14.8602543 75.4712208,14.6261513 75.8057089,14.1579454 C76.1397826,13.6897395 76.3070267,13.0439242 76.3070267,12.2207028 C76.3070267,11.3861013 76.1397826,10.7453664 75.8057089,10.2993109 C75.4712208,9.85325531 75.0003676,9.63032915 74.393771,9.63032915 Z M74.5433995,15.7092839 C74.098866,15.7092839 73.6928795,15.6290142 73.3254399,15.4682717 C72.9580003,15.3073259 72.6492101,15.0598108 72.3998983,14.7261328 L72.3252913,14.7261328 C72.3750293,15.116914 72.3998983,15.4877802 72.3998983,15.8377154 L72.3998983,18.5930991 L71.3661766,18.5930991 L71.3661766,8.89123847 L72.2071635,8.89123847 L72.3501603,9.80753208 L72.3998983,9.80753208 C72.666204,9.44093335 72.9758231,9.17634824 73.3287558,9.01337031 C73.6816884,8.8505956 74.086846,8.76890342 74.5433995,8.76890342 C75.4490459,8.76890342 76.1480723,9.07250569 76.6400641,9.67950703 C77.1322632,10.2863051 77.3786737,11.1375702 77.3786737,12.2330988 C77.3786737,13.332895 77.1283256,14.187005 76.6282513,14.7964449 C76.1273481,15.405072 75.4326738,15.7092839 74.5433995,15.7092839 L74.5433995,15.7092839 Z" id="Fill-111" fill="#F9F8F7"></path>
                        <polygon id="Fill-112" fill="#F9F8F7" points="78.7390084 15.5871521 79.7731446 15.5871521 79.7731446 6.08078369 78.7390084 6.08078369"></polygon>
                        <path d="M83.3830883,14.8724471 C84.0267811,14.8724471 84.5322437,14.6995117 84.900305,14.3534376 C85.2675373,14.0073635 85.4517752,13.522494 85.4517752,12.8988291 L85.4517752,12.2942664 L84.4170173,12.3367382 C83.5946821,12.3655946 83.002178,12.4905715 82.6382615,12.712888 C82.2749668,12.9347981 82.0932158,13.2800593 82.0932158,13.7484684 C82.0932158,14.1148639 82.2061625,14.3940805 82.4326777,14.585102 C82.6591929,14.7769364 82.9756511,14.8724471 83.3830883,14.8724471 Z M85.7195316,15.5871521 L85.5137405,14.6338734 L85.4637953,14.6338734 C85.1232971,15.0539176 84.7836279,15.3380112 84.4449949,15.4863577 C84.1067764,15.6353139 83.6840033,15.7092839 83.1772973,15.7092839 C82.5004458,15.7092839 81.9696997,15.5383806 81.5854735,15.1961676 C81.2010401,14.8539546 81.008927,14.3676626 81.008927,13.7362756 C81.008927,12.3840871 82.1120748,11.6754786 84.317334,11.6100436 L85.4766442,11.5732618 L85.4766442,11.1578916 C85.4766442,10.6323792 85.3612106,10.2442398 85.1305506,9.99408288 C84.900305,9.74331634 84.5310002,9.6183395 84.0247087,9.6183395 C83.4554157,9.6183395 82.8115156,9.789446 82.0932158,10.1314558 L81.775307,9.35558331 C82.1120748,9.17634824 82.4803433,9.03592711 82.8815633,8.9341167 C83.2821616,8.8323063 83.6840033,8.7812995 84.0870884,8.7812995 C84.901134,8.7812995 85.5044146,8.95829922 85.8971377,9.31270508 C86.2894463,9.66711095 86.4857042,10.2352983 86.4857042,11.0174705 L86.4857042,15.5871521 L85.7195316,15.5871521 L85.7195316,15.5871521 Z" id="Fill-113" fill="#F9F8F7"></path>
                        <path d="M87.0862908,8.89123847 L88.1948268,8.89123847 L89.6902831,12.7098398 C90.0183468,13.5816294 90.2220654,14.2105779 90.3012317,14.5979045 L90.3509697,14.5979045 C90.4050598,14.3896098 90.5184211,14.0345943 90.6904317,13.5312323 C90.8628568,13.0280735 91.4269688,11.4818153 92.3819387,8.89123847 L93.4915109,8.89123847 L90.5565535,16.5158418 C90.2657934,17.2693607 89.9263314,17.8040177 89.5375459,18.1202192 C89.1493822,18.4356079 88.672519,18.5930991 88.1079925,18.5930991 C87.7921561,18.5930991 87.4806718,18.5585526 87.173125,18.4894597 L87.173125,17.6770087 C87.4012982,17.7257801 87.6570345,17.7503691 87.9397122,17.7503691 C88.6499296,17.7503691 89.1564284,17.3595878 89.4600375,16.5772125 L89.8399116,15.6243403 L87.0862908,8.89123847" id="Fill-114" fill="#F9F8F7"></path>
                        <path d="M54.7841441,13.0707485 C55.1122077,12.7482473 55.1403926,12.300566 55.1403926,12.0481738 C55.1403926,11.0400273 54.5265426,9.47141551 53.3413271,9.47141551 C52.9695355,9.47141551 52.5701807,9.65329237 52.3413858,9.93393142 C52.098913,10.2279826 52.0270001,10.6055549 52.0270001,10.9701215 C52.0270001,11.9083623 52.5840658,13.4631554 53.8130093,13.4631554 C54.1698796,13.4631554 54.5547275,13.2950972 54.7841441,13.0707485 Z M54.3696606,15.7322471 C54.2556776,15.7176157 54.1837648,15.7176157 54.0415969,15.7176157 C53.9131071,15.7176157 53.1409244,15.7460657 52.5415813,15.9427772 C52.2274028,16.0539355 51.3130523,16.3900521 51.3130523,17.3849896 C51.3130523,18.3787079 52.2991085,19.0942257 53.8275162,19.0942257 C55.1977985,19.0942257 55.9270822,18.4486137 55.9270822,17.5808883 C55.9270822,16.8653705 55.4556073,16.488611 54.3696606,15.7322471 Z M55.3841089,9.51327767 C55.7123798,9.77969171 56.3977282,10.3395473 56.3977282,11.4043906 C56.3977282,12.4401743 55.7979706,12.9313434 55.1977985,13.3928433 C55.01211,13.5747201 54.7980292,13.7714316 54.7980292,14.0799111 C54.7980292,14.3873744 55.01211,14.5556359 55.1698209,14.681832 L55.6841949,15.0732229 C56.3125518,15.5914196 56.8832955,16.0679573 56.8832955,17.0348513 C56.8832955,18.3510708 55.5834754,19.681312 53.1272464,19.681312 C51.0558653,19.681312 50.0565457,18.7152309 50.0565457,17.678228 C50.0565457,17.1740531 50.3124892,16.4603642 51.1561703,15.9696015 C52.0410925,15.4373831 53.2418511,15.368087 53.8843005,15.3250055 C53.6836905,15.0732229 53.4555173,14.8070121 53.4555173,14.3735558 C53.4555173,14.135795 53.527223,13.9955771 53.5985141,13.826706 C53.4408032,13.840931 53.2839212,13.8549528 53.1409244,13.8549528 C51.627438,13.8549528 50.7702862,12.7482473 50.7702862,11.6563764 C50.7702862,11.0119837 51.0705795,10.2974819 51.684015,9.77969171 C52.498475,9.12148036 53.469817,9.00910281 54.2415852,9.00910281 L57.1833816,9.00910281 L56.269031,9.51327767 L55.3841089,9.51327767 L55.3841089,9.51327767 Z" id="Fill-115" fill="#F9F8F7"></path>
                        <path d="M48.1743763,14.375588 C48.5171541,13.9277035 48.602745,13.3686608 48.602745,12.822827 C48.602745,11.5921607 48.0040236,9.24320577 46.2354227,9.24320577 C45.7651912,9.24320577 45.2945452,9.42548906 44.9523891,9.71954026 C44.3961523,10.2082708 44.2958473,10.8236039 44.2958473,11.4257281 C44.2958473,12.8090084 44.9946665,15.0876511 46.7205756,15.0876511 C47.2766051,15.0876511 47.8471416,14.8224564 48.1743763,14.375588 Z M46.3920974,15.5078985 C44.1250802,15.5078985 42.9129233,13.7738702 42.9129233,12.2074938 C42.9129233,10.3755163 44.4384297,8.81015594 46.6067999,8.81015594 C48.702221,8.81015594 50.0142684,10.4175816 50.0142684,12.1101541 C50.0142684,13.759442 48.7171424,15.5078985 46.3920974,15.5078985 L46.3920974,15.5078985 Z" id="Fill-116" fill="#F9F8F7"></path>
                        <path d="M40.4457105,14.375588 C40.7878666,13.9277035 40.8736647,13.3686608 40.8736647,12.822827 C40.8736647,11.5921607 40.2745288,9.24320577 38.5059279,9.24320577 C38.0359037,9.24320577 37.5648432,9.42548906 37.2228943,9.71954026 C36.6666575,10.2082708 36.5669743,10.8236039 36.5669743,11.4257281 C36.5669743,12.8090084 37.2653789,15.0876511 38.9914953,15.0876511 C39.5477321,15.0876511 40.1178541,14.8224564 40.4457105,14.375588 Z M38.6630171,15.5078985 C36.3955854,15.5078985 35.1834285,13.7738702 35.1834285,12.2074938 C35.1834285,10.3755163 36.7095566,8.81015594 38.8770978,8.81015594 C40.9731407,8.81015594 42.2849808,10.4175816 42.2849808,12.1101541 C42.2849808,13.759442 40.9876476,15.5078985 38.6630171,15.5078985 L38.6630171,15.5078985 Z" id="Fill-117" fill="#F9F8F7"></path>
                        <path d="M34.0939587,15.2888334 L32.0437163,15.7527718 C31.211848,15.8795776 30.4666067,15.9911422 29.6784664,15.9911422 C25.7209783,15.9911422 24.2161961,13.1371996 24.2161961,10.9018415 C24.2161961,8.17490781 26.3520294,5.64509207 30.0083952,5.64509207 C30.7828576,5.64509207 31.5276844,5.75726641 32.2014272,5.94015934 C33.2768046,6.23542983 33.7783296,6.60060606 34.0939587,6.81174579 L32.9037695,7.92231234 L32.4022445,8.03428346 L32.7605654,7.47178608 C32.2733401,7.00825409 31.3838586,6.15089265 29.6927661,6.15089265 C27.4271995,6.15089265 25.7209783,7.83858802 25.7209783,10.2987012 C25.7209783,12.9406913 27.671123,15.4292545 30.7959138,15.4292545 C31.7144092,15.4292545 32.1865058,15.2465648 32.6169469,15.0774904 L32.6169469,12.8144952 L30.4525143,12.9268727 L31.5987683,12.3219035 L34.6383827,12.3219035 L34.2659693,12.673058 C34.1650426,12.7577984 34.1511574,12.7862484 34.1223508,12.8978131 C34.1074294,13.0246188 34.0939587,13.4324701 34.0939587,13.5730944 L34.0939587,15.2888334" id="Fill-118" fill="#F9F8F7"></path>
                        <path d="M59.9154493,14.8840303 C59.4421092,14.8417617 59.3430476,14.7578342 59.3430476,14.2089522 L59.3430476,6.25209341 C59.345949,6.22181447 59.3480214,6.19092588 59.3509228,6.1614598 C59.4087433,5.66968101 59.55174,5.58534705 59.9968953,5.33193872 L57.9458239,5.33193872 L56.8702393,5.83814573 L57.9663408,5.83814573 L57.9663408,5.84464859 L57.9655118,5.83936501 L57.9655118,14.5184477 C57.9655118,14.7990867 57.9089349,14.8417617 57.5787988,15.2630251 L60.116681,15.2630251 L60.6470126,14.9547489 C60.4037108,14.9256893 60.15958,14.9120739 59.9154493,14.8840303" id="Fill-119" fill="#F9F8F7"></path>
                        <path d="M64.4113514,10.8522572 C64.6813873,10.7549175 64.8239697,10.67099 64.8239697,10.4757009 C64.8239697,9.91767427 64.1835927,9.27490721 63.4141042,9.27490721 C62.8439822,9.27490721 61.7768945,9.70795704 61.7768945,11.2154013 C61.7768945,11.4527556 61.8052866,11.7041318 61.820208,11.9561176 L64.4113514,10.8522572 Z M65.749304,15.0132747 C65.593251,15.0972022 65.4365762,15.1953548 65.2805232,15.2646509 C64.80967,15.4739617 64.3257605,15.5300488 63.8980136,15.5300488 C63.4435325,15.5300488 62.7310354,15.5011924 62.0042387,14.9852311 C60.9941425,14.2867833 60.5527176,13.0859896 60.5527176,12.0392323 C60.5527176,9.87540568 62.3468093,8.81462665 63.8132517,8.81462665 C64.3257605,8.81462665 64.8531907,8.94000992 65.2805232,9.20581432 C65.9915696,9.66548523 66.1768437,10.2657805 66.2759052,10.5870624 L62.9308165,11.9140523 L61.8343005,11.9977766 C62.18972,13.7706188 63.4141042,14.803151 64.7671854,14.803151 C65.4931532,14.803151 66.0201689,14.5521813 66.5040784,14.3152333 L65.749304,15.0132747 L65.749304,15.0132747 Z" id="Fill-120" fill="#F9F8F7"></path>
                        <polyline id="Fill-121" fill="#F9F8F7" points="67.1235239 8.90993419 67.1235239 9.83130816 67.0095409 9.83130816 67.0095409 8.90993419 66.6986783 8.90993419 66.6986783 8.81462665 67.4341792 8.81462665 67.4341792 8.90993419 67.1235239 8.90993419"></polyline>
                        <polyline id="Fill-122" fill="#F9F8F7" points="68.4042778 9.83130816 68.4042778 8.90160241 68.3990967 8.90160241 68.10958 9.83130816 68.0204661 9.83130816 67.7284625 8.90160241 67.7249394 8.90160241 67.7249394 9.83130816 67.6213185 9.83130816 67.6213185 8.81462665 67.7989247 8.81462665 68.0631579 9.63642558 68.066681 9.63642558 68.3267694 8.81462665 68.5068624 8.81462665 68.5068624 9.83130816 68.4042778 9.83130816"></polyline>
                        <path d="M26.0349496,1.67428322 C25.7812857,0.923406112 25.6542465,0.517383794 25.6542465,0.456216268 L25.6186009,0.456216268 C25.6186009,0.512913078 25.4874169,0.918935396 25.2246344,1.67428322 L26.0349496,1.67428322 Z M27.0634903,2.90759125 L26.3512004,2.90759125 C26.3512004,2.81167407 26.2834324,2.53957002 26.148518,2.09127911 L25.1199773,2.09127911 C24.9805036,2.5322543 24.9106632,2.80435835 24.9106632,2.90759125 L24.2406507,2.90759125 C24.2406507,2.85089444 24.4139047,2.3851271 24.7604129,1.51049244 C25.1069211,0.636060988 25.2803824,0.154239709 25.2803824,0.0654350282 L26.1217838,0.0654350282 C26.1217838,0.148346492 26.2786658,0.623055268 26.5926371,1.48976457 C26.9066083,2.35627066 27.0634903,2.8291505 27.0634903,2.90759125 L27.0634903,2.90759125 Z" id="Fill-123" fill="#FCFBFA"></path>
                        <path d="M29.9342027,2.90759125 L29.3841832,2.90759125 C29.3841832,2.84784623 29.1800501,2.53306716 28.7719911,1.9624412 C28.3446586,1.36133309 28.1011496,0.950433624 28.0418785,0.729133171 L28.0062329,0.729133171 C28.0433292,1.04777331 28.0617737,1.33593129 28.0617737,1.59360711 C28.0617737,1.95289013 28.0721358,2.39102032 28.0930672,2.90759125 L27.5453273,2.90759125 C27.5677094,2.45665856 27.5786932,1.9610187 27.5786932,1.42107811 C27.5786932,0.88987574 27.5677094,0.437926974 27.5453273,0.0654350282 L28.2066356,0.0654350282 C28.2066356,0.14265649 28.3898373,0.450526265 28.756448,0.98884114 C29.1466841,1.56068639 29.3709197,1.94862262 29.4287401,2.15244664 L29.462106,2.15244664 C29.4264605,1.82791329 29.4088449,1.53670709 29.4088449,1.27923448 C29.4088449,0.884795381 29.3982756,0.480195564 29.3775514,0.0654350282 L29.9342027,0.0654350282 C29.9132713,0.426343755 29.9029092,0.878292521 29.9029092,1.42107811 C29.9029092,1.9681312 29.9132713,2.46377106 29.9342027,2.90759125" id="Fill-124" fill="#FCFBFA"></path>
                        <path d="M32.5531164,1.48224564 C32.5531164,1.20282588 32.4700125,0.967503631 32.3038046,0.775872477 C32.1375968,0.584647752 31.8837257,0.488933782 31.5423985,0.488933782 C31.4785681,0.488933782 31.3909048,0.495436642 31.279616,0.508645576 C31.2945374,0.799648559 31.3019981,1.10365726 31.3019981,1.42107811 C31.3019981,1.76898112 31.3092516,2.11383591 31.324173,2.4558457 C31.4207476,2.47474464 31.517115,2.4840925 31.6136897,2.4840925 C31.9326347,2.4840925 32.1690975,2.38695603 32.3226636,2.19268309 C32.4762298,1.99841015 32.5531164,1.7616654 32.5531164,1.48224564 Z M33.1607492,1.3883606 C33.1607492,1.80169863 33.0258348,2.16240415 32.7555916,2.47108678 C32.4855556,2.77976941 32.1071322,2.93380591 31.6203214,2.93380591 C31.4006452,2.93380591 31.097865,2.92506769 30.7119809,2.90759125 C30.7312544,2.46803856 30.7409948,1.97260192 30.7409948,1.42107811 C30.7409948,0.891501455 30.7312544,0.439552689 30.7119809,0.0654350282 L31.1015954,0.0654350282 C31.1654258,0.0654350282 31.2603425,0.0631996701 31.3865527,0.0589321682 C31.5125557,0.054461452 31.5950379,0.0524293083 31.6335849,0.0524293083 C32.1693048,0.0524293083 32.557883,0.183299365 32.7991124,0.445242692 C33.0401345,0.707186019 33.1607492,1.02155865 33.1607492,1.3883606 L33.1607492,1.3883606 Z" id="Fill-125" fill="#FCFBFA"></path>
                        <path d="M35.301349,0.899426816 C35.301349,0.609846334 35.1113084,0.464954486 34.7314343,0.464954486 C34.5917533,0.464954486 34.4686518,0.475115205 34.361715,0.495436642 C34.3780871,0.721207811 34.3863768,1.01505579 34.3863768,1.37738702 C34.4678228,1.38043524 34.5368343,1.38185774 34.5934113,1.38185774 C35.0653007,1.38185774 35.301349,1.22111517 35.301349,0.899426816 Z M36.1361187,2.90759125 L35.47709,2.90759125 C35.3048721,2.39244282 35.1728592,2.07461554 35.0808438,1.95370298 C34.9888285,1.83279043 34.8404434,1.77243576 34.6356886,1.77243576 C34.549476,1.77243576 34.4672011,1.77324862 34.3884492,1.77467112 C34.3884492,2.14878878 34.3952882,2.52636109 34.4085517,2.90759125 L33.7897278,2.90759125 C33.8087941,2.46803856 33.8185344,1.97260192 33.8185344,1.42107811 C33.8185344,0.891501455 33.8087941,0.439552689 33.7897278,0.0654350282 L34.174783,0.0654350282 C34.21934,0.0654350282 34.3123915,0.0631996701 34.4541448,0.0589321682 C34.5958982,0.054461452 34.726875,0.0524293083 34.8470752,0.0524293083 C35.5282787,0.0524293083 35.8689841,0.280842264 35.8689841,0.737871389 C35.8689841,1.10020262 35.6743841,1.35259487 35.2855987,1.49525136 L35.2855987,1.52796887 C35.4356417,1.56881496 35.5668257,1.68342787 35.6797724,1.87180759 C35.7925119,2.06018732 35.9446274,2.40565175 36.1361187,2.90759125 L36.1361187,2.90759125 Z" id="Fill-126" fill="#FCFBFA"></path>
                        <path d="M38.7129624,1.49748672 C38.7129624,1.1932748 38.6333816,0.946572551 38.4746344,0.757379969 C38.3158872,0.568390602 38.1198366,0.473692704 37.8868968,0.473692704 C37.670122,0.473692704 37.4862986,0.569000245 37.3348049,0.759615327 C37.1835184,0.950433624 37.1076679,1.19103944 37.1076679,1.48224564 C37.1076679,1.78483184 37.187456,2.03112766 37.3470321,2.22092989 C37.5066083,2.41093532 37.7022445,2.50603965 37.9337335,2.50603965 C38.1503011,2.50603965 38.3343317,2.41032568 38.4858254,2.21889774 C38.6371119,2.0274698 38.7129624,1.7870672 38.7129624,1.49748672 Z M39.3272269,1.43408383 C39.3272269,1.88095224 39.1877532,2.25141204 38.9088058,2.54526002 C38.6296512,2.83910801 38.2845937,2.98623521 37.8736334,2.98623521 C37.4817393,2.98623521 37.1536756,2.85130087 36.8896496,2.58122897 C36.6254164,2.31136028 36.4934035,1.9681312 36.4934035,1.55194817 C36.4934035,1.10528298 36.6326699,0.734823174 36.9118245,0.44097519 C37.1907719,0.146923992 37.5358294,0 37.946997,0 C38.3388911,0 38.6667475,0.134527915 38.9309807,0.40378696 C39.1952139,0.673046004 39.3272269,1.01647829 39.3272269,1.43408383 L39.3272269,1.43408383 Z" id="Fill-127" fill="#FCFBFA"></path>
                        <path d="M40.5860131,2.90759125 L39.9559983,2.90759125 C39.9752718,2.45665856 39.9850121,1.9610187 39.9850121,1.42107811 C39.9850121,0.88987574 39.9752718,0.437926974 39.9559983,0.0654350282 L40.5860131,0.0654350282 C40.5667397,0.432236972 40.5569993,0.883982524 40.5569993,1.42107811 C40.5569993,1.96975692 40.5667397,2.46539678 40.5860131,2.90759125" id="Fill-128" fill="#FCFBFA"></path>
                        <path d="M43.2051341,1.48224564 C43.2051341,1.20282588 43.1218229,0.967503631 42.9558223,0.775872477 C42.7894072,0.584647752 42.5357433,0.488933782 42.1944162,0.488933782 C42.1305858,0.488933782 42.0429225,0.495436642 41.9316337,0.508645576 C41.9465551,0.799648559 41.9540158,1.10365726 41.9540158,1.42107811 C41.9540158,1.76898112 41.9612693,2.11383591 41.9761907,2.4558457 C42.0725581,2.47474464 42.1691327,2.4840925 42.2657074,2.4840925 C42.5846524,2.4840925 42.8211152,2.38695603 42.9746813,2.19268309 C43.1282474,1.99841015 43.2051341,1.7616654 43.2051341,1.48224564 Z M43.8127669,1.3883606 C43.8127669,1.80169863 43.6778525,2.16240415 43.4076093,2.47108678 C43.1375733,2.77976941 42.7589427,2.93380591 42.2723391,2.93380591 C42.0526629,2.93380591 41.7498827,2.92506769 41.3639986,2.90759125 C41.3832721,2.46803856 41.3930124,1.97260192 41.3930124,1.42107811 C41.3930124,0.891501455 41.3832721,0.439552689 41.3639986,0.0654350282 L41.753613,0.0654350282 C41.8174435,0.0654350282 41.9123602,0.0631996701 42.0385704,0.0589321682 C42.1645734,0.054461452 42.2470556,0.0524293083 42.2856026,0.0524293083 C42.8213224,0.0524293083 43.2099007,0.183299365 43.4511301,0.445242692 C43.6921522,0.707186019 43.8127669,1.02155865 43.8127669,1.3883606 L43.8127669,1.3883606 Z" id="Fill-129" fill="#FCFBFA"></path>
                        <path d="M47.0650113,1.67428322 C46.8113475,0.923406112 46.684101,0.517383794 46.684101,0.456216268 L46.6486627,0.456216268 C46.6486627,0.512913078 46.5174787,0.918935396 46.2546962,1.67428322 L47.0650113,1.67428322 Z M48.093552,2.90759125 L47.3812622,2.90759125 C47.3812622,2.81167407 47.3137014,2.53957002 47.1783726,2.09127911 L46.1498319,2.09127911 C46.0103582,2.5322543 45.940725,2.80435835 45.940725,2.90759125 L45.2707124,2.90759125 C45.2707124,2.85089444 45.4439665,2.3851271 45.7904747,1.51049244 C46.1369829,0.636060988 46.310237,0.154239709 46.310237,0.0654350282 L47.1516384,0.0654350282 C47.1516384,0.148346492 47.3087276,0.623055268 47.6226988,1.48976457 C47.9364628,2.35627066 48.093552,2.8291505 48.093552,2.90759125 L48.093552,2.90759125 Z" id="Fill-130" fill="#FCFBFA"></path>
                        <path d="M50.1160241,0.929908972 C50.1160241,0.618584552 49.9052592,0.462719128 49.4837296,0.462719128 C49.3782435,0.462719128 49.2669547,0.473692704 49.1498631,0.495436642 C49.1662352,0.770588903 49.1743177,1.08191332 49.1743177,1.42981633 C49.2114139,1.43286455 49.2545202,1.43408383 49.3034293,1.43408383 C49.8451591,1.43408383 50.1160241,1.26602555 50.1160241,0.929908972 Z M50.6902909,0.809809277 C50.6902909,1.15771228 50.5586924,1.41457525 50.2950809,1.58039818 C50.0318839,1.74642432 49.7085868,1.82933579 49.3256041,1.82933579 C49.2559709,1.82933579 49.2062329,1.82791329 49.1765973,1.82486507 C49.1765973,2.09859483 49.1846798,2.45930034 49.2010518,2.90759125 L48.5753891,2.90759125 C48.5946625,2.48714071 48.6044029,1.99170407 48.6044029,1.42107811 C48.6044029,0.897191458 48.5946625,0.445242692 48.5753891,0.0654350282 L48.9629311,0.0654350282 C49.0176429,0.0654350282 49.123129,0.0631996701 49.2789747,0.0589321682 C49.4348205,0.054461452 49.5697349,0.0524293083 49.6841323,0.0524293083 C49.9659811,0.0524293083 50.2043091,0.114816121 50.3987018,0.239996175 C50.5933018,0.365379443 50.6902909,0.555181668 50.6902909,0.809809277 L50.6902909,0.809809277 Z" id="Fill-131" fill="#FCFBFA"></path>
                        <path d="M52.7861265,0.929908972 C52.7861265,0.618584552 52.5753617,0.462719128 52.153832,0.462719128 C52.048346,0.462719128 51.9370572,0.473692704 51.8199656,0.495436642 C51.8363377,0.770588903 51.8444201,1.08191332 51.8444201,1.42981633 C51.8815164,1.43286455 51.9246227,1.43408383 51.9735317,1.43408383 C52.5152616,1.43408383 52.7861265,1.26602555 52.7861265,0.929908972 Z M53.3603934,0.809809277 C53.3603934,1.15771228 53.2285876,1.41457525 52.9653906,1.58039818 C52.7019864,1.74642432 52.3786893,1.82933579 51.9957066,1.82933579 C51.9258661,1.82933579 51.8763353,1.82791329 51.8466998,1.82486507 C51.8466998,2.09859483 51.8547822,2.45930034 51.8711543,2.90759125 L51.2454915,2.90759125 C51.264765,2.48714071 51.2745054,1.99170407 51.2745054,1.42107811 C51.2745054,0.897191458 51.264765,0.445242692 51.2454915,0.0654350282 L51.6328263,0.0654350282 C51.6877454,0.0654350282 51.7932314,0.0631996701 51.9490772,0.0589321682 C52.104923,0.054461452 52.2398373,0.0524293083 52.3542348,0.0524293083 C52.6360835,0.0524293083 52.8744115,0.114816121 53.0688043,0.239996175 C53.263197,0.365379443 53.3603934,0.555181668 53.3603934,0.809809277 L53.3603934,0.809809277 Z" id="Fill-132" fill="#FCFBFA"></path>
                        <path d="M57.1114687,1.49748672 C57.1114687,1.1932748 57.0320951,0.946572551 56.8731407,0.757379969 C56.7143935,0.568390602 56.5185501,0.473692704 56.2854031,0.473692704 C56.0688355,0.473692704 55.8848049,0.569000245 55.7333112,0.759615327 C55.5820247,0.950433624 55.5063815,1.19103944 55.5063815,1.48224564 C55.5063815,1.78483184 55.5859623,2.03112766 55.7457457,2.22092989 C55.9053218,2.41093532 56.1007508,2.50603965 56.3322398,2.50603965 C56.5490146,2.50603965 56.7330453,2.41032568 56.8843317,2.21889774 C57.0358254,2.0274698 57.1114687,1.7870672 57.1114687,1.49748672 Z M57.7259404,1.43408383 C57.7259404,1.88095224 57.5864667,2.25141204 57.3073121,2.54526002 C57.0281575,2.83910801 56.6831,2.98623521 56.2721397,2.98623521 C55.8802456,2.98623521 55.5521819,2.85130087 55.2881559,2.58122897 C55.02413,2.31136028 54.8919098,1.9681312 54.8919098,1.55194817 C54.8919098,1.10528298 55.0313834,0.734823174 55.3103308,0.44097519 C55.5894854,0.146923992 55.9345429,0 56.3457105,0 C56.7373974,0 57.065461,0.134527915 57.3296942,0.40378696 C57.5937202,0.673046004 57.7259404,1.01647829 57.7259404,1.43408383 L57.7259404,1.43408383 Z" id="Fill-133" fill="#FCFBFA"></path>
                        <path d="M60.74338,2.90759125 L60.1935677,2.90759125 C60.1935677,2.84784623 59.9896418,2.53306716 59.5813756,1.9624412 C59.1538359,1.36133309 58.9105341,0.950433624 58.8510558,0.729133171 L58.8156174,0.729133171 C58.8525065,1.04777331 58.8711582,1.33593129 58.8711582,1.59360711 C58.8711582,1.95289013 58.8815203,2.39102032 58.9022445,2.90759125 L58.3547118,2.90759125 C58.3768867,2.45665856 58.3880777,1.9610187 58.3880777,1.42107811 C58.3880777,0.88987574 58.3768867,0.437926974 58.3547118,0.0654350282 L59.0158129,0.0654350282 C59.0158129,0.14265649 59.1992219,0.450526265 59.5658325,0.98884114 C59.9560687,1.56068639 60.180097,1.94862262 60.2381247,2.15244664 L60.2714906,2.15244664 C60.235845,1.82791329 60.2180222,1.53670709 60.2180222,1.27923448 C60.2180222,0.884795381 60.2076601,0.480195564 60.186936,0.0654350282 L60.74338,0.0654350282 C60.7226558,0.426343755 60.7122937,0.878292521 60.7122937,1.42107811 C60.7122937,1.9681312 60.7226558,2.46377106 60.74338,2.90759125" id="Fill-134" fill="#FCFBFA"></path>
                    </g>
                </g>
            </g>
        </g>
    </g>
</svg>