<?xml version="1.0" encoding="UTF-8"?>
<svg width="107px" height="35px" viewBox="0 0 107 35" version="1.1" xmlns="http://www.w3.org/2000/svg" xmlns:xlink="http://www.w3.org/1999/xlink">
    <title>C6CD0884-9060-47F6-8370-F8EED522BF5C</title>
    <g id="Page-1" stroke="none" stroke-width="1" fill="none" fill-rule="evenodd">
        <g id="D_Categoria_Detalle" transform="translate(-1081.000000, -1300.000000)">
            <g id="componentes/footer/completo/desktop" transform="translate(0.000000, 1169.000000)">
                <g id="Group-2-Copy-2" transform="translate(1081.000000, 131.000000)">
                    <g id="Fill-159" fill="#1A1919">
                        <path d="M102.271317,35 L4.72991405,35 C2.11802196,35 0,32.8814106 0,30.2697825 L0,4.72960224 C0,2.11797417 2.11802196,0 4.72991405,0 L102.271317,0 C104.883004,0 107,2.11797417 107,4.72960224 L107,30.2697825 C107,32.8814106 104.883004,35 102.271317,35 Z" id="Fill-135"></path>
                    </g>
                    <g id="Group" transform="translate(8.359375, 5.121951)" fill="#FFFFFE">
                        <path d="M19.2585576,21.1646076 C18.2353477,22.755053 16.7938237,24.7351628 15.0075875,24.7517935 C13.4198907,24.7667401 13.0122973,23.6966893 10.8580519,23.7088992 C8.70380645,23.7208986 8.25394871,24.7705294 6.66604573,24.7557933 C4.87980951,24.738952 3.51353671,22.950622 2.490533,21.3608081 C-0.37004267,16.914508 -0.668985713,11.6964576 1.09519058,8.92249348 C2.34910202,6.95101482 4.32624946,5.79696826 6.18629369,5.79696826 C8.07973708,5.79696826 9.26994272,6.85733538 10.8355796,6.85733538 C12.3540041,6.85733538 13.2796967,5.79528414 15.4685783,5.79528414 C17.1232796,5.79528414 18.876529,6.71502683 20.1259047,8.3063143 C16.032859,10.5965136 16.6975434,16.5661046 20.833472,18.1618129 C20.264037,19.4505895 19.9914834,20.0257181 19.2585576,21.1646076 Z" id="Fill-136"></path>
                        <path d="M13.8081043,4.01916397 C14.6028804,2.9769012 15.2073639,1.50434453 14.9882077,0 C13.6893517,0.0913637734 12.1690717,0.935320841 11.2817263,2.03568592 C10.4762294,3.03479299 9.81154505,4.51640183 10.0704916,5.95611806 C11.4887186,6.00095789 12.9560135,5.13594926 13.8081043,4.01916397" id="Fill-137"></path>
                        <path d="M30.5202574,10.8802886 C30.6585959,11.4299449 30.8078612,12.0008632 30.9998033,12.6176739 L32.104037,15.883192 L28.9612179,15.883192 L30.0499891,12.5964118 C30.215954,12.0635968 30.3734661,11.4878367 30.5202574,10.8802886 Z M29.5479709,8.85512848 L25.4503896,21.1711335 L27.326721,21.1711335 L28.5501197,17.3894312 L32.5176093,17.3894312 L33.7756441,21.1711335 L35.7039298,21.1711335 L31.588618,8.85512848 L29.5479709,8.85512848 L29.5479709,8.85512848 Z" id="Fill-138"></path>
                        <path d="M40.5517551,13.5906771 C42.1786238,13.5906771 42.9066016,15.1293356 42.9066016,16.6541002 C42.9066016,18.620737 41.9776103,19.8425696 40.4824828,19.8425696 C39.4617469,19.8425696 38.578731,19.133132 38.3325669,18.1133944 C38.2903025,17.9555077 38.2678303,17.7462551 38.2678303,17.5102671 L38.2678303,16.0118171 C38.2678303,15.8760345 38.2975184,15.7114113 38.3257634,15.5518405 C38.3348347,15.5008957 38.3447308,15.4499509 38.3519466,15.4004797 C38.6240879,14.3344287 39.5275144,13.5906771 40.5517551,13.5906771 Z M41.0063547,12.0478082 C39.7633701,12.0478082 38.7679929,12.5378885 38.105164,13.468999 L38.0323868,12.2440087 L36.3632538,12.2440087 L36.3731499,12.4006323 C36.4224239,13.1637514 36.4428345,14.0037087 36.4428345,15.2097526 L36.4428345,24.7027434 L38.2678303,24.7027434 L38.2678303,20.2726529 C38.8339665,20.9644072 39.7380115,21.3671236 40.7622522,21.3671236 C41.8289635,21.3671236 42.8115584,20.940619 43.5275785,20.1667636 C44.3268903,19.3040706 44.7485031,18.0641337 44.7485031,16.5825249 C44.7485031,15.2735388 44.3823494,14.1415964 43.6883892,13.3100598 C43.0086546,12.4959959 42.0565725,12.0478082 41.0063547,12.0478082 L41.0063547,12.0478082 Z" id="Fill-139"></path>
                        <path d="M49.9492874,13.5906771 C51.5753314,13.5906771 52.3035154,15.1293356 52.3035154,16.6541002 C52.3035154,18.620737 51.3739056,19.8425696 49.8796027,19.8425696 C48.8592792,19.8425696 47.9754386,19.133132 47.7296868,18.1133944 C47.6874225,17.9555077 47.6653625,17.7462551 47.6653625,17.5102671 L47.6653625,16.0118171 C47.6653625,15.8751924 47.6946383,15.7099377 47.7235018,15.5501563 C47.7325732,15.5000536 47.7416446,15.4499509 47.7498913,15.4004797 C48.0210017,14.3344287 48.9248405,13.5906771 49.9492874,13.5906771 Z M50.4034746,12.0478082 C49.1609024,12.0478082 48.1655252,12.5378885 47.5020778,13.468999 L47.4293006,12.2440087 L45.7607861,12.2440087 L45.7700636,12.4006323 C45.8195439,13.1645935 45.8403668,14.0037087 45.8403668,15.2097526 L45.8403668,24.7027434 L47.6653625,24.7027434 L47.6653625,20.2726529 C48.2314988,20.9644072 49.1349253,21.3671236 50.159166,21.3671236 C51.2256711,21.3671236 52.2084721,20.940619 52.9257293,20.1667636 C53.7238041,19.3040706 54.1458292,18.0641337 54.1458292,16.5825249 C54.1458292,15.2735388 53.779057,14.1415964 53.0850968,13.3100598 C52.4057745,12.4959959 51.4536925,12.0478082 50.4034746,12.0478082 L50.4034746,12.0478082 Z" id="Fill-140"></path>
                        <path d="M62.176264,14.0738104 C60.4731133,13.4001604 59.9273877,12.8707137 59.9273877,11.8920266 C59.9273877,11.0680685 60.568569,10.2371634 62.0016401,10.2371634 C63.1838052,10.2371634 63.940028,10.6569316 64.1439278,10.7861881 L64.2985535,10.8836569 L64.8135602,9.32857808 L64.7117134,9.26773907 C64.4059668,9.08480101 63.5347024,8.65913845 62.0542128,8.65913845 C59.7269927,8.65913845 58.1015673,10.0620145 58.1015673,12.0699123 C58.1015673,13.6891984 59.1194168,14.8211408 61.3045873,15.6324679 C62.8533185,16.2233852 63.4297631,16.8288281 63.4297631,17.8668806 C63.4297631,19.0417682 62.540356,19.7707837 61.1101713,19.7707837 C60.1784998,19.7707837 59.2198204,19.4935347 58.4798848,19.0093488 L58.3215481,18.9057751 L57.8316939,20.4966415 L57.9217891,20.5574806 C58.6108013,21.0273514 59.9073894,21.3671236 61.0058505,21.3671236 C64.1422784,21.3671236 65.2543465,19.4143808 65.2543465,17.7420448 C65.2543465,16.0181325 64.3628778,14.9548182 62.176264,14.0738104" id="Fill-141"></path>
                        <path d="M68.5394213,10.1222219 L66.7494741,10.6960875 L66.7494741,12.2440087 L65.4392789,12.2440087 L65.4392789,13.7331961 L66.7494741,13.7331961 L66.7494741,18.2950693 C66.7494741,19.3979606 66.956054,20.1707634 67.3813778,20.6593701 C67.7891774,21.1157679 68.4161331,21.3671236 69.1469973,21.3671236 C69.8368341,21.3671236 70.3268946,21.2279728 70.5575961,21.1446086 L70.6598553,21.1077683 L70.5724402,19.6158442 L70.3974039,19.6705783 C70.1664962,19.7429957 69.9298157,19.7707837 69.5484056,19.7707837 C68.8414569,19.7707837 68.5394213,19.3139649 68.5394213,18.2413878 L68.5394213,13.7331961 L70.7408791,13.7331961 L70.7408791,12.2440087 L68.5394213,12.2440087 L68.5394213,10.1222219" id="Fill-142"></path>
                        <path d="M75.2103869,13.5191018 C76.8520996,13.5191018 77.5994572,15.1531239 77.5994572,16.6722045 C77.5994572,18.5401095 76.579546,19.8960405 75.1757507,19.8960405 L75.1580203,19.8960405 C73.7742233,19.8960405 72.7693623,18.5628452 72.7693623,16.7260965 C72.7693623,15.1299672 73.5245543,13.5191018 75.2103869,13.5191018 Z M75.2631658,12.0478082 C72.7097799,12.0478082 70.9268423,13.994025 70.9268423,16.7787254 C70.9268423,19.4804827 72.6522591,21.3671236 75.1233841,21.3671236 L75.1402899,21.3671236 C77.2293863,21.3671236 79.4768195,19.8810939 79.4768195,16.6183125 C79.4768195,15.2918537 79.0747927,14.1523327 78.313828,13.3224802 C77.5483276,12.4890489 76.4929556,12.0478082 75.2631658,12.0478082 L75.2631658,12.0478082 Z" id="Fill-143"></path>
                        <path d="M85.0662298,12.1345406 L84.9567548,12.106121 C84.795944,12.0650705 84.6648214,12.0478082 84.5029798,12.0478082 C83.5482176,12.0478082 82.6915912,12.6218842 82.2149316,13.5479424 L82.1613281,12.2440087 L80.5237387,12.2440087 L80.5342532,12.4006323 C80.5829088,13.138279 80.6031132,13.9664474 80.6031132,15.0838643 L80.5862075,21.1711335 L82.410997,21.1711335 L82.410997,16.4223225 C82.410997,16.1635988 82.4283151,15.9191902 82.4613019,15.6998329 C82.6670572,14.5592594 83.4210122,13.8220337 84.3813409,13.8220337 C84.5681288,13.8220337 84.7151263,13.8376119 84.870989,13.8534005 L85.0662298,13.8738206 L85.0662298,12.1345406" id="Fill-144"></path>
                        <path d="M89.0475326,13.4479475 C89.6031543,13.4479475 90.0540429,13.6235175 90.3872098,13.9696052 C90.9121125,14.5152616 91.0040633,15.3187997 91.0156087,15.7044643 L86.853703,15.7044643 C87.0231728,14.6283085 87.6822906,13.4479475 89.0475326,13.4479475 Z M89.1689653,12.0301249 C86.7396923,12.0301249 85.0429328,14.0123398 85.0429328,16.8503007 C85.0429328,19.5830038 86.7308271,21.3494403 89.3437955,21.3494403 C90.7176965,21.3494403 91.6736957,21.0414559 92.2330284,20.7835743 L92.3429158,20.7328401 L91.9922247,19.3444896 L91.8398668,19.4070128 C91.3425905,19.6137391 90.681411,19.8246757 89.5536741,19.8246757 C88.7607534,19.8246757 86.9322529,19.5575314 86.8203038,17.1229184 L92.7105126,17.1410228 L92.7342219,17.0218709 C92.7713321,16.8326174 92.7890625,16.5774725 92.7890625,16.2442263 C92.7890625,14.3003252 91.8411038,12.0301249 89.1689653,12.0301249 L89.1689653,12.0301249 Z" id="Fill-145"></path>
                        <path d="M26.2785649,5.60518855 C26.4855572,5.63971311 26.7867681,5.63971311 27.1069464,5.63971311 C28.8573094,5.64813373 29.8077421,4.74039043 29.8077421,3.16636524 C29.8172258,1.77401502 28.9700831,0.91763753 27.2386875,0.91763753 C26.8154254,0.91763753 26.4950409,0.952583121 26.2785649,0.995528305 L26.2785649,5.60518855 Z M25.4503896,0.442082774 C25.9587989,0.37282314 26.551737,0.3210363 27.2007526,0.3210363 C28.3773512,0.3210363 29.2150102,0.563339764 29.7702196,1.03910504 C30.3441903,1.51444928 30.6738523,2.19757242 30.6738523,3.14047182 C30.6738523,4.09179185 30.3441903,4.86985753 29.7609421,5.4062513 C29.1585203,5.95106569 28.1796365,6.24515599 26.9469603,6.24515599 C26.3540222,6.24515599 25.874064,6.22789371 25.4503896,6.17589636 L25.4503896,0.442082774 L25.4503896,0.442082774 Z" id="Fill-146"></path>
                        <path d="M33.6370994,5.71739337 C34.4275461,5.71739337 35.0206903,5.03427022 35.0206903,4.08295019 C35.0206903,3.37372311 34.6347445,2.48303158 33.6560669,2.48303158 C32.6864606,2.48303158 32.2629923,3.31330514 32.2629923,4.10905413 C32.2629923,5.02563908 32.8276854,5.71739337 33.6276157,5.71739337 L33.6370994,5.71739337 Z M33.6088545,6.28831169 C32.3852497,6.28831169 31.4255394,5.45824865 31.4255394,4.13515806 C31.4255394,2.73396619 32.4324621,1.91232377 33.6838995,1.91232377 C34.9924453,1.91232377 35.8766982,2.78554251 35.8766982,4.05705677 C35.8766982,5.61381969 34.700512,6.28831169 33.6185443,6.28831169 L33.6088545,6.28831169 L33.6088545,6.28831169 Z" id="Fill-147"></path>
                        <path d="M37.1870996,2.00726631 L37.7985928,4.12652692 C37.9208502,4.59324002 38.0435199,5.03427022 38.1280486,5.46687979 L38.1562936,5.46687979 C38.2597897,5.04290136 38.4102921,4.59324002 38.5610006,4.13515806 L39.304441,2.00726631 L40.0010814,2.00726631 L40.7069993,4.10021247 C40.8760568,4.59324002 41.008004,5.04290136 41.1115002,5.46687979 L41.1397452,5.46687979 C41.2149963,5.04290136 41.3374599,4.60187116 41.4879623,4.10905413 L42.1369779,2.00726631 L42.9560818,2.00726631 L41.4879623,6.19315864 L40.7350381,6.19315864 L40.0388101,4.19557604 C39.878824,3.71981077 39.7468767,3.304674 39.6336907,2.81164644 L39.6151356,2.81164644 C39.5021558,3.31330514 39.3611371,3.75433533 39.2007387,4.20420718 L38.4669882,6.19315864 L37.714064,6.19315864 L36.3397507,2.00726631 L37.1870996,2.00726631" id="Fill-148"></path>
                        <path d="M43.7848757,3.14047182 C43.7848757,2.69923111 43.775392,2.35356448 43.7469408,2.00726631 L44.4813099,2.00726631 L44.5281099,2.69081049 L44.5470773,2.69081049 C44.7730371,2.30156713 45.2997953,1.91232377 46.0527194,1.91232377 C46.68318,1.91232377 47.6618577,2.25820091 47.6618577,3.69391735 L47.6618577,6.19315864 L46.8343009,6.19315864 L46.8343009,3.78022875 C46.8343009,3.10573675 46.5607164,2.53523945 45.7797535,2.53523945 C45.2435115,2.53523945 44.8196309,2.88974773 44.6695409,3.31330514 C44.6318122,3.40845819 44.6128448,3.54676694 44.6128448,3.66802393 L44.6128448,6.19315864 L43.7848757,6.19315864 L43.7848757,3.14047182" id="Fill-149"></path>
                        <polygon id="Fill-150" points="49.0079261 6.19315864 49.8361014 6.19315864 49.8361014 0.0530499329 49.0079261 0.0530499329"></polygon>
                        <path d="M53.0921065,5.71739337 C53.8827593,5.71739337 54.4759036,5.03427022 54.4759036,4.08295019 C54.4759036,3.37372311 54.0899578,2.48303158 53.1114863,2.48303158 C52.14188,2.48303158 51.7182055,3.31330514 51.7182055,4.10905413 C51.7182055,5.02563908 52.2828986,5.71739337 53.0830352,5.71739337 L53.0921065,5.71739337 Z M53.0642739,6.28831169 C51.8410814,6.28831169 50.881165,5.45824865 50.881165,4.13515806 C50.881165,2.73396619 51.8874691,1.91232377 53.1397312,1.91232377 C54.4474524,1.91232377 55.3321177,2.78554251 55.3321177,4.05705677 C55.3321177,5.61381969 54.1557253,6.28831169 53.0735514,6.28831169 L53.0642739,6.28831169 L53.0642739,6.28831169 Z" id="Fill-151"></path>
                        <path d="M58.7773847,4.05705677 C57.873752,4.03979449 56.8480682,4.1869449 56.8480682,4.99974566 C56.8480682,5.50140435 57.2055628,5.72623502 57.6197535,5.72623502 C58.2219691,5.72623502 58.6079149,5.38035788 58.7394499,5.02563908 C58.7681072,4.94795882 58.7773847,4.86122639 58.7773847,4.78354613 L58.7773847,4.05705677 Z M59.5863864,5.19005177 C59.5863864,5.55319119 59.6053539,5.90748896 59.6523601,6.19315864 L58.9087135,6.19315864 L58.8334623,5.66581704 L58.8056297,5.66581704 C58.5609087,5.9944319 58.0617769,6.28831169 57.4127613,6.28831169 C56.4907797,6.28831169 56.0198928,5.69171046 56.0198928,5.08605706 C56.0198928,4.07431905 56.9983643,3.52087352 58.7582111,3.52950466 L58.7582111,3.44298275 C58.7582111,3.09731612 58.6551273,2.46597982 57.7232497,2.47461096 C57.2898854,2.47461096 56.8480682,2.58660526 56.528096,2.78554251 L56.3396588,2.27567371 C56.7161209,2.05947418 57.2713303,1.91232377 57.8457133,1.91232377 C59.2478592,1.91232377 59.5863864,2.78554251 59.5863864,3.62486823 L59.5863864,5.19005177 L59.5863864,5.19005177 Z" id="Fill-152"></path>
                        <path d="M64.0194025,3.71117963 C64.0194025,3.60739544 64.010125,3.48634896 63.9814677,3.38256477 C63.8596226,2.90701001 63.4077032,2.50913552 62.7867263,2.50913552 C61.9300999,2.50913552 61.4216906,3.2008898 61.4216906,4.11789578 C61.4216906,4.97385224 61.8832998,5.67402715 62.7677589,5.67402715 C63.3231745,5.67402715 63.8313776,5.32836052 63.9814677,4.76628385 C64.010125,4.66249966 64.0194025,4.55850495 64.0194025,4.43766899 L64.0194025,3.71117963 Z M64.8473717,0.0530499329 L64.8473717,5.11195048 C64.8473717,5.48393156 64.8574739,5.90748896 64.8851003,6.19315864 L64.1418661,6.19315864 L64.1043436,5.46687979 L64.0853762,5.46687979 C63.8313776,5.93380341 63.2854458,6.28831169 62.5420054,6.28831169 C61.440658,6.28831169 60.5842377,5.43235523 60.5842377,4.16084097 C60.574754,2.75964909 61.525599,1.91232377 62.6263279,1.91232377 C63.3326582,1.91232377 63.8031327,2.21525573 64.0008474,2.54366008 L64.0194025,2.54366008 L64.0194025,0.0530499329 L64.8473717,0.0530499329 L64.8473717,0.0530499329 Z" id="Fill-153"></path>
                        <path d="M70.0992855,5.71739337 C70.8897322,5.71739337 71.482464,5.03427022 71.482464,4.08295019 C71.482464,3.37372311 71.0971368,2.48303158 70.1182529,2.48303158 C69.1486466,2.48303158 68.7253845,3.31330514 68.7253845,4.10905413 C68.7253845,5.02563908 69.2900776,5.71739337 70.0895956,5.71739337 L70.0992855,5.71739337 Z M70.0708344,6.28831169 C68.8474357,6.28831169 67.8875193,5.45824865 67.8875193,4.13515806 C67.8875193,2.73396619 68.8950605,1.91232377 70.1460856,1.91232377 C71.4548376,1.91232377 72.3390905,2.78554251 72.3390905,4.05705677 C72.3390905,5.61381969 71.1624919,6.28831169 70.0807304,6.28831169 L70.0708344,6.28831169 L70.0708344,6.28831169 Z" id="Fill-154"></path>
                        <path d="M73.3843603,3.14047182 C73.3843603,2.69923111 73.3746704,2.35356448 73.3464255,2.00726631 L74.0805883,2.00726631 L74.1280069,2.69081049 L74.146562,2.69081049 C74.3725217,2.30156713 74.8992799,1.91232377 75.6522041,1.91232377 C76.2828708,1.91232377 77.2617547,2.25820091 77.2617547,3.69391735 L77.2617547,6.19315864 L76.4333732,6.19315864 L76.4333732,3.78022875 C76.4333732,3.10573675 76.1608196,2.53523945 75.3792382,2.53523945 C74.8432024,2.53523945 74.4191156,2.88974773 74.2686132,3.31330514 C74.2310907,3.40845819 74.2123295,3.54676694 74.2123295,3.66802393 L74.2123295,6.19315864 L73.3843603,6.19315864 L73.3843603,3.14047182" id="Fill-155"></path>
                        <path d="M81.600346,1.00436996 L81.600346,2.00726631 L82.7858098,2.00726631 L82.7858098,2.58660526 L81.600346,2.58660526 L81.600346,4.84417463 C81.600346,5.36288508 81.7607444,5.65697539 82.2217352,5.65697539 C82.4472825,5.65697539 82.579436,5.63971311 82.7016934,5.60518855 L82.7392159,6.1845275 C82.579436,6.23631434 82.3252313,6.28831169 82.005053,6.28831169 C81.6193134,6.28831169 81.3084126,6.16726522 81.1106979,5.96853848 C80.8849443,5.73486616 80.7911381,5.36288508 80.7911381,4.86985753 L80.7911381,2.58660526 L80.0852202,2.58660526 L80.0852202,2.00726631 L80.7911381,2.00726631 L80.7911381,1.23783177 L81.600346,1.00436996" id="Fill-156"></path>
                        <path d="M83.7180997,0.0530499329 L84.5460689,0.0530499329 L84.5460689,2.66470655 L84.5652425,2.66470655 C84.6965712,2.44850702 84.9035635,2.24978029 85.1583867,2.1285233 C85.4029015,1.99042506 85.6940102,1.91232377 86.0053233,1.91232377 C86.6166102,1.91232377 87.5954941,2.25820091 87.5954941,3.70254849 L87.5954941,6.19315864 L86.7675249,6.19315864 L86.7675249,3.78907041 C86.7675249,3.10573675 86.494559,2.54366008 85.7133899,2.54366008 C85.1769418,2.54366008 84.7629572,2.88974773 84.602765,3.304674 C84.5555526,3.40845819 84.5460689,3.52087352 84.5460689,3.66802393 L84.5460689,6.19315864 L83.7180997,6.19315864 L83.7180997,0.0530499329" id="Fill-157"></path>
                        <path d="M91.8312078,3.68528621 C91.8398668,3.20952094 91.6145256,2.44850702 90.6919255,2.44850702 C89.8447828,2.44850702 89.487082,3.1577341 89.4215207,3.68528621 L91.8312078,3.68528621 Z M89.4118308,4.2301006 C89.4312105,5.25910089 90.1371285,5.68307932 90.9648914,5.68307932 C91.5576233,5.68307932 91.925014,5.58771575 92.2264311,5.47530042 L92.3771396,6.01148367 C92.0847939,6.13253014 91.5765907,6.27968055 90.8521177,6.27968055 C89.4590432,6.27968055 88.6121066,5.42330306 88.6121066,4.16968262 C88.6121066,2.89837887 89.4312105,1.90369263 90.7574868,1.90369263 C92.2449862,1.90369263 92.6303134,3.10573675 92.6303134,3.87559232 C92.6303134,4.03116335 92.6216544,4.15242034 92.602687,4.23873174 L89.4118308,4.2301006 L89.4118308,4.2301006 Z" id="Fill-158"></path>
                    </g>
                </g>
            </g>
        </g>
    </g>
</svg>