<?xml version="1.0" encoding="UTF-8"?>
<svg width="32px" height="32px" viewBox="0 0 32 32" version="1.1" xmlns="http://www.w3.org/2000/svg" xmlns:xlink="http://www.w3.org/1999/xlink">
    <title>CD8308F7-24A3-4A70-8AF8-0ECD2F86BEB6</title>
    <defs>
        <polygon id="path-1" points="0 0 32 0 32 32 0 32"></polygon>
    </defs>
    <g id="Page-1" stroke="none" stroke-width="1" fill="none" fill-rule="evenodd">
        <g id="D_Categoria_Detalle" transform="translate(-357.000000, -1209.000000)">
            <g id="componentes/footer/completo/desktop" transform="translate(0.000000, 1169.000000)">
                <g id="icono/footer/twitter" transform="translate(357.000000, 40.000000)">
                    <mask id="mask-2" fill="white">
                        <use xlink:href="#path-1"></use>
                    </mask>
                    <g id="Clip-11"></g>
                    <path d="M27.9017384,8.39738129 C27.1396523,8.74615138 26.2966121,8.95812673 25.4742291,9.09774782 C25.8644842,9.03161151 26.4378632,8.31598276 26.6678848,8.02656576 C27.0185002,7.58509178 27.309377,7.08256891 27.4735186,6.53934676 C27.4947342,6.4969517 27.5098084,6.44381654 27.4679355,6.41159629 C27.4154549,6.39068139 27.3813983,6.40142148 27.3395254,6.42233638 C26.4216723,6.92033711 25.4719959,7.28154309 24.4614642,7.5376093 C24.3782768,7.55852421 24.3157467,7.5376093 24.263266,7.48390889 C24.1795203,7.38837866 24.1007993,7.29793585 24.0120289,7.2238858 C23.5871589,6.85759241 23.1315822,6.57100175 22.6173835,6.35902641 C21.9429513,6.08034949 21.205989,5.96277384 20.4796344,6.01025631 C19.7728206,6.05660825 19.0782894,6.25840878 18.4513131,6.59022085 C17.8226619,6.92259818 17.2615656,7.38555233 16.8149218,7.94347143 C16.3532037,8.52117489 16.0120795,9.20232232 15.8378884,9.92529955 C15.6692803,10.6222745 15.6832379,11.3124662 15.785966,12.0173549 C15.8015986,12.1343652 15.7909908,12.1501927 15.6865878,12.1343652 C11.7343481,11.5385732 8.45821561,10.1067504 5.79845158,7.03847803 C5.68288249,6.90507489 5.62035235,6.90507489 5.52599884,7.04865285 C4.36193334,8.81511403 4.92637949,11.652192 6.38020517,13.0467071 C6.57449524,13.2326801 6.77381005,13.4186532 6.98819909,13.5882334 C6.91003642,13.6046262 5.94249421,13.4983559 5.07991331,13.0467071 C4.96490252,12.9726571 4.90683882,13.0150521 4.89623103,13.14789 C4.88562324,13.3389504 4.90181408,13.5147487 4.9280544,13.7210713 C5.15081802,15.511839 6.37573873,17.1675077 8.05288633,17.8136086 C8.25220115,17.898964 8.47217323,17.973014 8.68656227,18.0103217 C8.3046818,18.0951118 7.91107692,18.1555955 6.81568291,18.0685443 C6.67889824,18.0419767 6.62697589,18.1115046 6.67889824,18.2437772 C7.50239781,20.5161529 9.28004027,21.1922129 10.6110389,21.5777254 C10.7891381,21.6093804 10.9672374,21.6093804 11.1464532,21.6517754 C11.1352871,21.6681682 11.1246793,21.6681682 11.1146298,21.6834304 C10.6730107,22.3651431 9.14269729,22.8721881 8.42918377,23.1242975 C7.13280003,23.5832947 5.72140552,23.7896174 4.35132555,23.6528227 C4.13191177,23.6200371 4.08557247,23.6228635 4.02639216,23.6528227 C3.96609524,23.6906956 4.0185759,23.7438307 4.0889223,23.8009228 C4.36751639,23.9868958 4.65057692,24.1519539 4.9386622,24.3113594 C5.80850106,24.7782704 6.71574635,25.1502165 7.6648645,25.415327 C12.5639891,26.7849703 18.0822736,25.7782287 21.7609439,22.0779872 C24.6496129,19.1719466 25.6623778,15.1641995 25.6623778,11.1519302 C25.6623778,10.9947858 25.8455018,10.9082999 25.9543712,10.8252055 C26.7058495,10.2531547 27.3121685,9.56918098 27.8732648,8.80493921 C27.9988834,8.63366314 28,8.48104089 28,8.41829619 L28,8.39738129 C28,8.33294079 27.9988834,8.35272515 27.9017384,8.39738129" id="Fill-10" fill="#FFFFFF" mask="url(#mask-2)"></path>
                </g>
            </g>
        </g>
    </g>
</svg>