<?xml version="1.0" encoding="UTF-8"?>
<svg width="32px" height="32px" viewBox="0 0 32 32" version="1.1" xmlns="http://www.w3.org/2000/svg" xmlns:xlink="http://www.w3.org/1999/xlink">
    <title>2EA7C8C3-4F96-4E72-B27C-79E33EE2552E</title>
    <g id="Page-1" stroke="none" stroke-width="1" fill="none" fill-rule="evenodd">
        <g id="D_Categoria_Detalle" transform="translate(-1177.000000, -23.000000)" fill="#AC55FF">
            <g id="🙂-Icons/System/MessageCenter/WithoutNotification/Off" transform="translate(1177.000000, 23.000000)">
                <path d="M15.5178669,2.67825301 C10.1244057,2.93859193 5.9917321,7.68743719 5.9917321,13.1832311 L5.9917321,18.1525965 L4.2233375,21.7984889 C4.22022665,21.8051326 4.21718575,21.8118105 4.21421533,21.8185214 C3.50278687,23.3689753 4.65442738,25.2307026 6.32664543,25.2307026 L11.9967154,25.2307026 C11.9967154,27.4843221 13.8009694,29.3333333 16.0000377,29.3333333 C18.1991059,29.3333333 20.0033599,27.4843221 20.0033599,25.2307026 L25.6721269,25.2307026 C27.3443446,25.2307026 28.4974635,23.3693589 27.7858596,21.8185214 C27.7828894,21.8118105 27.7798487,21.8051326 27.7767381,21.7984889 L26.0083432,18.1525965 L26.0083432,12.9228104 C26.0083432,7.10650947 21.2465843,2.40186301 15.5178669,2.67825301 Z M15.6116947,4.72689742 C20.2288964,4.50413401 24.0066821,8.24731705 24.0066821,12.9228104 L24.0066821,18.3929847 C24.0065432,18.5514393 24.0422272,18.7077725 24.1109353,18.8497231 L25.9744611,22.6932679 C26.0942985,22.9564893 25.9556441,23.1793872 25.6721269,23.1793872 L6.32664543,23.1793872 C6.04312608,23.1793872 5.90559622,22.9568701 6.02561435,22.6932679 C6.02561435,22.6932679 6.02561435,22.6919325 6.02561435,22.6919325 L7.88914003,18.8497231 C7.95784811,18.7077725 7.99353208,18.5514393 7.99339321,18.3929847 L7.99339321,13.1832311 C7.99339321,8.73835135 11.315781,4.93425839 15.6116947,4.72689742 Z M13.9983765,25.2307026 L18.0016988,25.2307026 C18.0016988,26.3754289 17.1170546,27.282018 16.0000377,27.282018 C14.8830207,27.282018 13.9983765,26.3754289 13.9983765,25.2307026 Z" id="Shape"></path>
            </g>
        </g>
    </g>
</svg>