<?xml version="1.0" encoding="UTF-8"?>
<svg width="32px" height="32px" viewBox="0 0 32 32" version="1.1" xmlns="http://www.w3.org/2000/svg" xmlns:xlink="http://www.w3.org/1999/xlink">
    <title>FED20BA8-A14B-4DE4-BF49-20F419AB9DE1</title>
    <defs>
        <polygon id="path-1" points="0 0 32 0 32 32 0 32"></polygon>
    </defs>
    <g id="Page-1" stroke="none" stroke-width="1" fill="none" fill-rule="evenodd">
        <g id="D_Categoria_Detalle" transform="translate(-309.000000, -1209.000000)">
            <g id="componentes/footer/completo/desktop" transform="translate(0.000000, 1169.000000)">
                <g id="icono/footer/instagram" transform="translate(309.000000, 40.000000)">
                    <mask id="mask-2" fill="white">
                        <use xlink:href="#path-1"></use>
                    </mask>
                    <g id="Clip-8"></g>
                    <g id="Group-3" mask="url(#mask-2)" fill="#FFFFFF">
                        <g transform="translate(5.000000, 5.000000)">
                            <path d="M16.5,4 C15.6711668,4 15,4.67189007 15,5.5 C15,6.32883317 15.6711668,7 16.5,7 C17.3288332,7 18,6.32883317 18,5.5 C18,4.67189007 17.3288332,4 16.5,4" id="Fill-1"></path>
                            <path d="M10.5003156,15.0230677 C8.5574683,15.0230677 6.97693235,13.4425317 6.97693235,11.4996844 C6.97693235,9.5574683 8.5574683,7.97693235 10.5003156,7.97693235 C12.4425317,7.97693235 14.0230677,9.5574683 14.0230677,11.4996844 C14.0230677,13.4425317 12.4425317,15.0230677 10.5003156,15.0230677 M10.5003156,6 C7.46737821,6 5,8.46737821 5,11.4996844 C5,14.5326218 7.46737821,17 10.5003156,17 C13.5326218,17 16,14.5326218 16,11.4996844 C16,8.46737821 13.5326218,6 10.5003156,6" id="Fill-3"></path>
                            <path d="M6.60833192,2.06992256 C4.10564694,2.06992256 2.06992256,4.10564694 2.06992256,6.60833192 L2.06992256,15.3916681 C2.06992256,17.8943531 4.10564694,19.9300774 6.60833192,19.9300774 L15.3916681,19.9300774 C17.8943531,19.9300774 19.9300774,17.8943531 19.9300774,15.3916681 L19.9300774,6.60833192 C19.9300774,4.10564694 17.8943531,2.06992256 15.3916681,2.06992256 L6.60833192,2.06992256 Z M15.3916681,22 L6.60833192,22 C2.9646713,22 0,19.0353287 0,15.3916681 L0,6.60833192 C0,2.9646713 2.9646713,0 6.60833192,0 L15.3916681,0 C19.0353287,0 22,2.9646713 22,6.60833192 L22,15.3916681 C22,19.0353287 19.0353287,22 15.3916681,22 L15.3916681,22 Z" id="Fill-5"></path>
                        </g>
                    </g>
                </g>
            </g>
        </g>
    </g>
</svg>