<svg width="40" height="40" viewBox="0 0 40 40" xmlns="http://www.w3.org/2000/svg">
    <g fill="none" fill-rule="evenodd">
        <path d="M0 0h40v40H0z"/>
        <g fill-rule="nonzero">
            <path d="M4.92 8C3.309 8 2 9.228 2 10.743v18.514C2 30.772 3.308 32 4.92 32H15V8H4.92z" fill="#73AF00"/>
            <path fill="#F5F5F5" d="M14 8h13v24H14z"/>
            <path d="M36.08 8H26v24h10.08c1.612 0 2.92-1.228 2.92-2.743V10.743C39 9.228 37.692 8 36.08 8z" fill="#FF4B55"/>
            <path fill="#FFD250" d="m22 20-2 1v1h1z"/>
            <g fill="#00C3A0">
                <path d="M20 23c-.15 0-.273-.134-.273-.3v-1.2c0-.166.122-.3.273-.3.15 0 .273.134.273.3v1.2c0 .166-.122.3-.273.3z"/>
                <path d="M20 21.8c-1.071 0-2.106-.455-2.913-1.28a.321.321 0 0 1-.014-.424.257.257 0 0 1 .385-.016c.706.722 1.61 1.12 2.542 1.12.933 0 1.836-.398 2.542-1.12a.256.256 0 0 1 .385.016.322.322 0 0 1-.014.424c-.807.825-1.842 1.28-2.913 1.28z"/>
            </g>
            <path d="M20 24c-.714 0-1.405-.39-2-1.13l.308-.87c1.006 1.251 2.378 1.251 3.384 0l.308.87c-.594.74-1.286 1.13-2 1.13z" fill="#00AADC"/>
            <path fill="#732D37" d="m19.899 19-.769 1.505L19 21l2-.587z"/>
            <path d="M18.368 21c-.543 0-1.195-.725-1.368-2.34l.405-.11c.144 1.344.665 1.8.978 1.798.096-.004.196-.057.204-.164.01-.129.011-.16-.204-.275-.116-.062-.249-.133-.342-.302-.376-.68.133-1.401.378-1.748.043-.06.06-.113.056-.132-.013-.056-.094-.14-.185-.14-.26 0-.459-.234-.516-.61-.06-.39.053-.8.268-.977l.188.58c-.05.04-.07.158-.057.242.005.034.017.113.117.113.252 0 .491.235.57.56.032.137.083.496-.167.85-.27.383-.432.67-.342.833.02.036.107.083.164.114.185.099.53.284.48.966-.03.43-.272.728-.6.742h-.027z" fill="#AAD264"/>
            <path d="M20.492 17.888s.492-1.245-.492-1.867c0 0 3.444-.623 2.952 4.979-.323-.327-.803-.924-.974-1.4l-1.486-1.09v-.622z" fill="#874150"/>
            <path d="m20 19 3 1.5-1.2.5-1.8-1.5V19z" fill="#732D37"/>
            <path d="M19 17.625c.276 0 .5.28.5.625-.299.373-.373.943-.184 1.415l.113.282c.047.118.109.225.183.319L21 22v-.864a8.38 8.38 0 0 0-.585-3.1C20.16 17.401 19.64 17 19.073 17H19v.625z" fill="#783C46"/>
            <path d="M18.559 16 18 17v1s.665-.603.888-.795c.157-.134.129-.452.039-.605-.07-.119-.368-.6-.368-.6z" fill="#FFD250"/>
            <path d="M20.5 24c-2.481 0-4.5-2.243-4.5-5h.53c0 2.433 1.78 4.412 3.97 4.412 2.19 0 3.97-1.98 3.97-4.412H25c0 2.757-2.019 5-4.5 5z" fill="#AAD264"/>
            <g transform="translate(16 21)" fill="#FFE15A">
                <circle cx=".374" cy=".366" r="1"/>
                <circle cx="1.201" cy="1.658" r="1"/>
                <circle cx="2.545" cy="2.634" r="1"/>
                <circle cx="8.626" cy=".366" r="1"/>
                <circle cx="7.798" cy="1.658" r="1"/>
                <circle cx="6.454" cy="2.634" r="1"/>
            </g>
            <path d="M20.333 24h-.666c-.368 0-.667-.448-.667-1s.299-1 .667-1h.666c.368 0 .667.448.667 1s-.298 1-.667 1z" fill="#FFB478"/>
            <path d="M21.978 19.6c.164.609.513 1.167.974 1.4.492-5.602-2.952-4.98-2.952-4.98 2.46 0 1.978 3.58 1.978 3.58z" fill="#9B4B5A"/>
        </g>
    </g>
</svg>
