<?xml version="1.0" encoding="UTF-8"?>
<svg width="32px" height="32px" viewBox="0 0 32 32" version="1.1" xmlns="http://www.w3.org/2000/svg" xmlns:xlink="http://www.w3.org/1999/xlink">
    <title>CBDA2F67-7B48-4BC6-B981-4099DDF03553</title>
    <defs>
        <polygon id="path-1" points="0 0 32 0 32 32 0 32"></polygon>
    </defs>
    <g id="Page-1" stroke="none" stroke-width="1" fill="none" fill-rule="evenodd">
        <g id="D_Categoria_Detalle" transform="translate(-405.000000, -1209.000000)">
            <g id="componentes/footer/completo/desktop" transform="translate(0.000000, 1169.000000)">
                <g id="icono/footer/youtube" transform="translate(405.000000, 40.000000)">
                    <mask id="mask-2" fill="white">
                        <use xlink:href="#path-1"></use>
                    </mask>
                    <g id="Clip-2"></g>
                    <path d="M13.3185433,20.4681955 L13.3185433,11.5318045 L20.3925057,15.9989623 L13.3185433,20.4681955 Z M29.7865001,9.88295113 C29.7865001,7.86780118 28.1710178,6.21791014 26.1956356,6.21791014 C26.1956356,6.21791014 18.5492901,6 16.0005083,6 C13.4507099,6 5.8043644,6.21791014 5.8043644,6.21791014 C3.82999891,6.21791014 2.21451654,7.86780118 2.21451654,9.88295113 C2.21451654,9.88295113 2,14.468403 2,16 C2,17.531597 2.21451654,22.1170489 2.21451654,22.1170489 C2.21451654,24.1321988 3.82999891,25.7820899 5.8043644,25.7820899 C5.8043644,25.7820899 13.4507099,26 16.0005083,26 C18.5492901,26 26.1956356,25.7820899 26.1956356,25.7820899 C28.1710178,25.7820899 29.7865001,24.1321988 29.7865001,22.1170489 C29.7865001,22.1170489 30,17.5357476 30,16 C30,14.4642524 29.7865001,9.88295113 29.7865001,9.88295113 L29.7865001,9.88295113 Z" id="Fill-1" fill="#FFFFFF" mask="url(#mask-2)"></path>
                </g>
            </g>
        </g>
    </g>
</svg>