<?xml version="1.0" encoding="UTF-8"?>
<svg width="24px" height="24px" viewBox="0 0 24 24" version="1.1" xmlns="http://www.w3.org/2000/svg" xmlns:xlink="http://www.w3.org/1999/xlink">
    <title>B2ACEB87-DB4C-4FA6-B901-8A36CF391F06</title>
    <g id="Page-1" stroke="none" stroke-width="1" fill="none" fill-rule="evenodd">
        <g id="D_Catalogo" transform="translate(-393.000000, -1477.000000)" fill="#FFFFFF">
            <g id="Footer/completo/desktop" transform="translate(0.000000, 1433.000000)">
                <g id="icon/social/youtube" transform="translate(393.000000, 44.000000)">
                    <path d="M9.70160851,15.4013104 L9.70160851,7.74154672 L15.7650049,11.5705391 L9.70160851,15.4013104 Z M23.8170001,6.32824382 C23.8170001,4.60097244 22.4323009,3.18678012 20.7391162,3.18678012 C20.7391162,3.18678012 14.1851058,3 12.0004357,3 C9.81489416,3 3.26088377,3.18678012 3.26088377,3.18678012 C1.56857049,3.18678012 0.183871319,4.60097244 0.183871319,6.32824382 C0.183871319,6.32824382 0,10.2586312 0,11.5714286 C0,12.884226 0.183871319,16.8146133 0.183871319,16.8146133 C0.183871319,18.5418847 1.56857049,19.956077 3.26088377,19.956077 C3.26088377,19.956077 9.81489416,20.1428571 12.0004357,20.1428571 C14.1851058,20.1428571 20.7391162,19.956077 20.7391162,19.956077 C22.4323009,19.956077 23.8170001,18.5418847 23.8170001,16.8146133 C23.8170001,16.8146133 24,12.8877837 24,11.5714286 C24,10.2550735 23.8170001,6.32824382 23.8170001,6.32824382 L23.8170001,6.32824382 Z" id="Fill-1"></path>
                </g>
            </g>
        </g>
    </g>
</svg>