<?xml version="1.0" encoding="UTF-8"?>
<svg width="24px" height="24px" viewBox="0 0 24 24" version="1.1" xmlns="http://www.w3.org/2000/svg" xmlns:xlink="http://www.w3.org/1999/xlink">
    <title>B3006B58-708E-457A-B932-688565E0DA9F</title>
    <g id="Page-1" stroke="none" stroke-width="1" fill="none" fill-rule="evenodd">
        <g id="D_Catalogo" transform="translate(-349.000000, -1477.000000)" fill="#FFFFFF">
            <g id="Footer/completo/desktop" transform="translate(0.000000, 1433.000000)">
                <g id="icon/social/twitter" transform="translate(349.000000, 44.000000)">
                    <path d="M23.9017384,4.39738129 C23.1396523,4.74615138 22.2966121,4.95812673 21.4742291,5.09774782 C21.8644842,5.03161151 22.4378632,4.31598276 22.6678848,4.02656576 C23.0185002,3.58509178 23.309377,3.08256891 23.4735186,2.53934676 C23.4947342,2.4969517 23.5098084,2.44381654 23.4679355,2.41159629 C23.4154549,2.39068139 23.3813983,2.40142148 23.3395254,2.42233638 C22.4216723,2.92033711 21.4719959,3.28154309 20.4614642,3.5376093 C20.3782768,3.55852421 20.3157467,3.5376093 20.263266,3.48390889 C20.1795203,3.38837866 20.1007993,3.29793585 20.0120289,3.2238858 C19.5871589,2.85759241 19.1315822,2.57100175 18.6173835,2.35902641 C17.9429513,2.08034949 17.205989,1.96277384 16.4796344,2.01025631 C15.7728206,2.05660825 15.0782894,2.25840878 14.4513131,2.59022085 C13.8226619,2.92259818 13.2615656,3.38555233 12.8149218,3.94347143 C12.3532037,4.52117489 12.0120795,5.20232232 11.8378884,5.92529955 C11.6692803,6.62227447 11.6832379,7.31246618 11.785966,8.01735485 C11.8015986,8.13436524 11.7909908,8.15019273 11.6865878,8.13436524 C7.73434814,7.53857321 4.45821561,6.10675044 1.79845158,3.03847803 C1.68288249,2.90507489 1.62035235,2.90507489 1.52599884,3.04865285 C0.361933344,4.81511403 0.92637949,7.652192 2.38020517,9.04670711 C2.57449524,9.23268014 2.77381005,9.41865317 2.98819909,9.58823345 C2.91003642,9.60462621 1.94249421,9.4983559 1.07991331,9.04670711 C0.964902521,8.97265706 0.906838822,9.01505212 0.896231031,9.14789001 C0.88562324,9.33895045 0.901814079,9.51474866 0.928054404,9.72107133 C1.15081802,11.511839 2.37573873,13.1675077 4.05288633,13.8136086 C4.25220115,13.898964 4.47217323,13.973014 4.68656227,14.0103217 C4.3046818,14.0951118 3.91107692,14.1555955 2.81568291,14.0685443 C2.67889824,14.0419767 2.62697589,14.1115046 2.67889824,14.2437772 C3.50239781,16.5161529 5.28004027,17.1922129 6.6110389,17.5777254 C6.78913813,17.6093804 6.96723736,17.6093804 7.1464532,17.6517754 C7.1352871,17.6681682 7.12467931,17.6681682 7.11462982,17.6834304 C6.67301073,18.3651431 5.14269729,18.8721881 4.42918377,19.1242975 C3.13280003,19.5832947 1.72140552,19.7896174 0.351325553,19.6528227 C0.131911769,19.6200371 0.0855724708,19.6228635 0.0263921627,19.6528227 C-0.033904755,19.6906956 0.0185758956,19.7438307 0.0889222996,19.8009228 C0.367516392,19.9868958 0.650576922,20.1519539 0.938662195,20.3113594 C1.80850106,20.7782704 2.71574635,21.1502165 3.6648645,21.415327 C8.56398907,22.7849703 14.0822736,21.7782287 17.7609439,18.0779872 C20.6496129,15.1719466 21.6623778,11.1641995 21.6623778,7.15193019 C21.6623778,6.99478581 21.8455018,6.90829987 21.9543712,6.82520553 C22.7058495,6.25315474 23.3121685,5.56918098 23.8732648,4.80493921 C23.9988834,4.63366314 24,4.48104089 24,4.41829619 L24,4.39738129 C24,4.33294079 23.9988834,4.35272515 23.9017384,4.39738129" id="Fill-10"></path>
                </g>
            </g>
        </g>
    </g>
</svg>