<?xml version="1.0" encoding="UTF-8"?>
<svg width="24px" height="24px" viewBox="0 0 24 24" version="1.1" xmlns="http://www.w3.org/2000/svg" xmlns:xlink="http://www.w3.org/1999/xlink">
    <title>0F0FF54E-0510-4499-8799-3E9E2F52121F</title>
    <defs>
        <polygon id="path-1" points="0 0 24 0 24 24 0 24"></polygon>
    </defs>
    <g id="Page-1" stroke="none" stroke-width="1" fill="none" fill-rule="evenodd">
        <g id="D_Categoria_Detalle" transform="translate(-265.000000, -1254.000000)">
            <g id="componentes/footer/completo/desktop" transform="translate(0.000000, 1169.000000)">
                <g id="icono/correo" transform="translate(265.000000, 85.000000)">
                    <mask id="mask-2" fill="white">
                        <use xlink:href="#path-1"></use>
                    </mask>
                    <g id="Mask"></g>
                    <path d="M5.25,4 C3.46403095,4 2,5.464031 2,7.25 L2,16.75 C2,18.535969 3.46403095,20 5.25,20 L18.75,20 C20.535969,20 22,18.535969 22,16.75 L22,7.25 C22,5.464031 20.535969,4 18.75,4 L5.25,4 Z M5.25,5.5 L18.75,5.5 C19.725031,5.5 20.5,6.274969 20.5,7.25 L20.5,7.8027345 L12,12.397461 L3.5,7.8027345 L3.5,7.25 C3.5,6.274969 4.27496905,5.5 5.25,5.5 Z M3.5,9.5078125 L11.6435545,13.910156 C11.8659996,14.0302973 12.1340004,14.0302973 12.3564455,13.910156 L20.5,9.5078125 L20.5,16.75 C20.5,17.725031 19.725031,18.5 18.75,18.5 L5.25,18.5 C4.27496905,18.5 3.5,17.725031 3.5,16.75 L3.5,9.5078125 Z" id="icon/mail" fill="#FFFFFF" mask="url(#mask-2)"></path>
                </g>
            </g>
        </g>
    </g>
</svg>