<svg width="439" height="414" viewBox="0 0 439 414" xmlns="http://www.w3.org/2000/svg">
    <g fill="none" fill-rule="evenodd">
        <path d="M284.224 339.574c-68.193.99-224.528-20.289-141.52 44.555 120.681 85.865 339.802-47.432 141.52-44.555" fill="#D0D2D3" opacity=".204"/>
        <g opacity=".196">
            <g fill="#FFF">
                <path d="M418.003 120a5.005 5.005 0 0 0-5.003 4.997 5.007 5.007 0 0 0 5.003 5.003 5.005 5.005 0 0 0 4.997-5.003 5.004 5.004 0 0 0-4.997-4.997M418 133c-4.413 0-8-3.592-8-8.003 0-4.405 3.587-7.997 8-7.997s8 3.592 8 7.997c0 4.41-3.587 8.003-8 8.003"/>
                <path opacity=".657" d="M319.388 245v-4.621H324v-2.77h-4.612V233h-2.77v4.608H312v2.77h4.619V245z"/>
                <path d="m219 137.936-3.435-3.44 3.435-3.432-2.065-2.064-3.435 3.433-3.442-3.433-2.058 2.064 3.435 3.433-3.435 3.44 2.058 2.063 3.442-3.44 3.435 3.44z"/>
                <path d="M274 135.504a2.496 2.496 0 0 0 2.496 2.496 2.498 2.498 0 0 0 2.504-2.496 2.51 2.51 0 0 0-2.504-2.504 2.509 2.509 0 0 0-2.496 2.504z" opacity=".619"/>
                <path d="M434.996 187.54a2.469 2.469 0 0 0-2.456 2.464 2.457 2.457 0 0 0 2.456 2.456 2.458 2.458 0 0 0 2.464-2.456 2.47 2.47 0 0 0-2.464-2.464M421.996 240.54a2.469 2.469 0 0 0-2.456 2.464 2.457 2.457 0 0 0 2.456 2.456 2.458 2.458 0 0 0 2.464-2.456 2.47 2.47 0 0 0-2.464-2.464"/>
                <path d="M203.996 217.54a2.469 2.469 0 0 0-2.456 2.464 2.457 2.457 0 0 0 2.456 2.456 2.458 2.458 0 0 0 2.464-2.456 2.47 2.47 0 0 0-2.464-2.464" opacity=".689"/>
            </g>
            <g fill="#37C800">
                <path d="M264 87.096a5.005 5.005 0 0 0 4.997 5.004A5.007 5.007 0 0 0 274 87.096a5.005 5.005 0 0 0-5.003-4.996A5.004 5.004 0 0 0 264 87.096M277 87c0 4.413-3.592 8-8.003 8-4.405 0-7.997-3.587-7.997-8s3.592-8 7.997-8c4.41 0 8.003 3.587 8.003 8"/>
                <path opacity=".657" d="M389 185.96h-4.621v-4.613h-2.77v4.612H377v2.769h4.608v4.619h2.77v-4.619H389z"/>
                <path d="M360 7.545h-3.851V3.7h-2.309v3.844H350v2.307h3.84v3.85h2.309v-3.85H360zM281.936 286.583l-3.44 3.435-3.432-3.435-2.064 2.065 3.433 3.435-3.433 3.442 2.064 2.058 3.433-3.435 3.44 3.435 2.063-2.058-3.44-3.442 3.44-3.435z"/>
                <path opacity=".783" d="m293.5.937-2.502 2.498L288.5.937 287 2.44l2.497 2.498L287 7.44l1.5 1.497 2.498-2.498 2.501 2.498L295 7.44l-2.502-2.503L295 2.44z"/>
                <path d="M279.504 231.881a2.496 2.496 0 0 0 2.496-2.496 2.498 2.498 0 0 0-2.496-2.504 2.51 2.51 0 0 0-2.504 2.504 2.509 2.509 0 0 0 2.504 2.496z" opacity=".619"/>
                <path d="M331.54 69.941a2.469 2.469 0 0 0 2.464 2.456 2.457 2.457 0 0 0 2.456-2.456 2.458 2.458 0 0 0-2.456-2.464 2.47 2.47 0 0 0-2.464 2.464M384.54 82.941a2.469 2.469 0 0 0 2.464 2.456 2.457 2.457 0 0 0 2.456-2.456 2.458 2.458 0 0 0-2.456-2.464 2.47 2.47 0 0 0-2.464 2.464"/>
                <path d="M361.54 300.941a2.469 2.469 0 0 0 2.464 2.456 2.457 2.457 0 0 0 2.456-2.456 2.458 2.458 0 0 0-2.456-2.464 2.47 2.47 0 0 0-2.464 2.464" opacity=".689"/>
            </g>
        </g>
        <g opacity=".196">
            <g fill="#37C800">
                <path d="M218.003 206a5.005 5.005 0 0 0-5.003 4.997 5.007 5.007 0 0 0 5.003 5.003 5.005 5.005 0 0 0 4.997-5.003 5.004 5.004 0 0 0-4.997-4.997M218 219c-4.413 0-8-3.592-8-8.003 0-4.405 3.587-7.997 8-7.997s8 3.592 8 7.997c0 4.41-3.587 8.003-8 8.003"/>
                <path opacity=".657" d="M119.388 331v-4.621H124v-2.77h-4.612V319h-2.77v4.608H112v2.77h4.619V331z"/>
                <path d="m19 223.936-3.435-3.44L19 217.065 16.935 215l-3.435 3.433L10.058 215 8 217.064l3.435 3.433L8 223.937 10.058 226l3.442-3.44 3.435 3.44z"/>
                <path d="M74 221.504A2.496 2.496 0 0 0 76.496 224 2.498 2.498 0 0 0 79 221.504 2.51 2.51 0 0 0 76.496 219 2.509 2.509 0 0 0 74 221.504z" opacity=".619"/>
                <path d="M234.996 273.54a2.469 2.469 0 0 0-2.456 2.464 2.457 2.457 0 0 0 2.456 2.456 2.458 2.458 0 0 0 2.464-2.456 2.47 2.47 0 0 0-2.464-2.464M221.996 326.54a2.469 2.469 0 0 0-2.456 2.464 2.457 2.457 0 0 0 2.456 2.456 2.458 2.458 0 0 0 2.464-2.456 2.47 2.47 0 0 0-2.464-2.464"/>
                <path d="M3.996 303.54a2.469 2.469 0 0 0-2.456 2.464 2.457 2.457 0 0 0 2.456 2.456 2.458 2.458 0 0 0 2.464-2.456 2.47 2.47 0 0 0-2.464-2.464" opacity=".689"/>
            </g>
            <path d="M64 173.096a5.005 5.005 0 0 0 4.997 5.004A5.007 5.007 0 0 0 74 173.096a5.005 5.005 0 0 0-5.003-4.996A5.004 5.004 0 0 0 64 173.096M77 173c0 4.413-3.592 8-8.003 8-4.405 0-7.997-3.587-7.997-8s3.592-8 7.997-8c4.41 0 8.003 3.587 8.003 8" fill="#AD58FF"/>
            <path fill="#37C800" opacity=".657" d="M189 271.96h-4.621v-4.613h-2.77v4.612H177v2.769h4.608v4.619h2.77v-4.619H189z"/>
            <path fill="#AD58FF" d="M160 93.545h-3.851V89.7h-2.309v3.844H150v2.307h3.84v3.85h2.309v-3.85H160zM81.936 372.583l-3.44 3.435-3.432-3.435L73 374.648l3.433 3.435L73 381.525l2.064 2.058 3.433-3.435 3.44 3.435L84 381.525l-3.44-3.442 3.44-3.435z"/>
            <path fill="#AD58FF" opacity=".783" d="m93.5 86.937-2.502 2.498-2.497-2.498L87 88.44l2.497 2.498L87 93.44l1.5 1.497 2.498-2.498 2.501 2.498L95 93.44l-2.502-2.503L95 88.44z"/>
            <path d="M79.504 317.881A2.496 2.496 0 0 0 82 315.385a2.498 2.498 0 0 0-2.496-2.504A2.51 2.51 0 0 0 77 315.385a2.509 2.509 0 0 0 2.504 2.496z" fill="#37C800" opacity=".619"/>
            <path d="M131.54 155.941a2.469 2.469 0 0 0 2.464 2.456 2.457 2.457 0 0 0 2.456-2.456 2.458 2.458 0 0 0-2.456-2.464 2.47 2.47 0 0 0-2.464 2.464M184.54 168.941a2.469 2.469 0 0 0 2.464 2.456 2.457 2.457 0 0 0 2.456-2.456 2.458 2.458 0 0 0-2.456-2.464 2.47 2.47 0 0 0-2.464 2.464" fill="#37C800"/>
            <path d="M161.54 386.941a2.469 2.469 0 0 0 2.464 2.456 2.457 2.457 0 0 0 2.456-2.456 2.458 2.458 0 0 0-2.456-2.464 2.47 2.47 0 0 0-2.464 2.464" fill="#37C800" opacity=".689"/>
        </g>
        <g fill-rule="nonzero">
            <path fill="#FFF" d="M228.316 98.209h50.9v108.5h-50.9z"/>
            <path d="M285.716 144.309c1.8 3 4.1 5.7 6 7.9.2-.1.4-.1.5.2.3.7.7 1.2 1.2 1.8.2 0 .3.2.4.4 1.3 1.5 2.8 2.7 4.3 4 2.3 1.9 4.1 4.5 6.2 6.8 3.1 3.7 6.5 7.7 11.3 6.7 1.7-.3 3.1-1.4 4.4-2.8 5.7-24-12-50.2-23.5-60.4-3.2-2.8-11.8 14.1-13 26.7-.2 1.6.1 3.1.4 4.4.2.7.5 1.4.7 2.1.3.7.6 1.5 1 2.1.1.2.3.3.4.4.2.3.4.6.6.8l2.4 3.3c1.6 2.2 3.3 4.4 4.9 6.6l1.8 2.4c1.4 1.8 2.7 3.7 3.9 5.7.7 1.2 1.4 2.5 2.3 3.6.6.7 1.2 1.3 1.9 1.9 3 2.6 6.2 4.9 9.5 6.7 1.6.9 3.2 1.7 5 2 1.5.3 3.4.2 4.7-1.5.7-.9 1.2-2.1 1.5-3.4.8-3 .8-6.1.4-8.9-.4-2.8-1.2-5.3-2-7.8-.7-2-1.3-4-2-6.1-1-3.2-2.1-6.5-4-8.7" fill="#7624F4"/>
            <path d="M318.516 160.609c-2.9-6.2-6.5-12-10.2-17.7-3.7-5.6-7.7-10.7-12.4-15.5-2.6-2.7-5.1-6-8.2-8.4-2.2 5-4 11.1-4.5 16.4-.2 1.6.1 3.1.4 4.4.2.7.5 1.4.7 2.1.3.7.6 1.5 1 2.1l.2.2h-.1c1.8 3 4.1 5.7 6 7.9l2.2 3 1.8 2.4c1.4 1.8 2.7 3.7 3.9 5.7.7 1.2 1.4 2.5 2.3 3.6.6.7 1.2 1.3 1.9 1.9 3 2.6 6.2 4.9 9.5 6.7 1.6.9 3.2 1.7 5 2 1.5.3 3.4.2 4.7-1.5.4-.5.8-1.2 1-1.9-1.4-4.4-3.1-9-5.2-13.4z" fill="#582ECD"/>
            <path fill="#7624F4" d="m216.816 276.409 64.7-2.5-25.3-83.6z"/>
            <path d="M248.216 91.309s5.9 1.4 8.1 2.4c2.2 1-.7 8.7-.7 8.7s-9-5-7.4-11.1z" fill="#DA5627"/>
            <path d="M271.116 66.809s8.4-5.4 9.4-12-4.9-15.5-9.2-16.6c-.6-.2-1.3-.3-2-.1-.9.2-1.4.9-1.8 1.7-.2.4-.3.9-.4 1.3-.2.7-.9 1-1.5 1.2-2.7.9-5.6.4-8.3.9-1.3.3-2.5.7-3.8.9-1.1.1-2.2 0-3.2.5s-1.7 1.8-1 2.7c-3.1 1.5-6.9 2.4-8.6 5.4-1.8 3-.8 6.8-.7 10.2 0 1.7-.2 3.4-.5 5.1-.2 1.5-.5 3-1.2 4.3-.7 1.1-1.7 2-2.8 2.8 1.4.5 2.8-.1 4.2-.4 1.3-.3 2.6-.5 3.9-.4 1.5 0 3 .3 4.5.7.7.2 1.4.5 2.1.9.6.3 1 .5 1.6.5.6 0 1.2 0 1.8-.1.8-.2 1.6-.5 2.4-.9 2.2-1 4.3-2.1 6.4-3.3 3-1.7 5.9-3.5 8.7-5.3z" fill="#2E1742"/>
            <path fill="#FF9910" d="M263.316 351.209v-4l10.9.7-1 3.3zM199.116 351.209s-3.1 1.8-3.8 3.6c-.7 1.8 2.3 2.9 6.8 1.4s6.9-5 6.9-5h-9.9z"/>
            <path d="M209.016 351.209s9.4 10.6 5.1 12.5c-4.3 2-29.7 2.9-33.6 1.1-3.9-1.8 18.7-13.6 18.7-13.6s-2.7 3.1-2 3.9c2 2.4 11.8-3.9 11.8-3.9z" fill="#2C2C2C"/>
            <path d="M182.816 361.109c5.5-.4 12.1 3.7 21 2.6 6.5-.8 9.7-1.9 11.3-2.6.2 1.2 0 2.2-1 2.7-4.3 2-29.7 2.9-33.6 1.1-1.3-.6 0-2.1 2.3-3.8z" fill="#EEEDED"/>
            <path d="M273.216 351.209s4.3 3 5.3 6.1c1 3.1-7.2 2.2-10.5-.5s-4.7-5.6-4.7-5.6h9.9z" fill="#FF9910"/>
            <path d="M263.316 351.209s-9.4 10.6-5.1 12.5c4.3 2 29.7 2.9 33.6 1.1 3.9-1.8-18.7-13.6-18.7-13.6s2.7 3.1 2 3.9c-2 2.4-11.8-3.9-11.8-3.9z" fill="#2C2C2C"/>
            <path d="M289.516 361.109c-5.5-.4-12.1 3.7-21 2.6-6.5-.8-9.7-1.9-11.3-2.6-.2 1.2 0 2.2 1 2.7 4.3 2 29.7 2.9 33.6 1.1 1.2-.6 0-2.1-2.3-3.8z" fill="#EEEDED"/>
            <path d="M277.216 179.409c-22.7 4.2-45.9 2.8-54.9 1.9-.6 2.1-1.2 4.4-1.9 6.7-17.8 57.6-21.3 162.2-21.3 162.2s5.6.2 9.9 0c0 0 27.1-85.6 34-107.6 3.3-10.5 6.3-14.2 9.5-26l9.3 133s5.9.2 12.8 0c0 0 18-125 10.4-149.5-2.2-6.7-5-13.9-7.8-20.7z" fill="#48375A"/>
            <path d="M265.716 347.709c.9-16.7 2.7-33.6.3-50.3-.1-.9 1-1.5 1.5-.6 1.5 2.6 3.7 4.9 6.3 6.4 2 1.1 4.2 1.8 6.4 2.2 4.5-38.5 9.3-90.2 4.7-105.1-2.1-6.9-5-14.1-7.8-20.9-22.7 4.2-45.9 2.8-54.9 1.9-.6 2.1-1.2 4.4-1.9 6.7-9.2 29.9-14.6 72.5-17.6 106.5 1.6.8 3.1 1.6 4.5 2.6 3.4 2.2 6.5 4.7 9.6 7.3 1.8 1.5 3.5 3 5.3 4.5 8-25.2 17.3-54.6 21-66.2 3.3-10.5 6.3-14.2 9.5-26l9.3 133s1.5 0 3.8.1v-2.1z" fill="#2E1B42"/>
            <path d="M250.016 91.709s33.9 9.3 46.4 17.1c0 0-9.9 56.1-7.8 73.9 2.1 17.8-.6 106.2-.6 106.2s-2.9 7.2-12.6 8.9c0 0 1.3-170.2.8-176.6-.6-8.1-13.9-27.5-13.9-27.5l-12.3-2z" fill="#7624F4"/>
            <path d="M324.916 163.709c-.4-2.8-1.2-5.3-2-7.8-.7-2-1.3-4-2-6.1-.8-2.5-1.6-5-2.8-7-4.7-14.7-14.5-27.6-21.8-34-1-.9-2.6.2-4.4 2.6.3.2.6.3.9.5 3.8 2.6 8 6.9 9.3 8.9 2.4 3.7 8.1 10.4 10.6 16.8 3.1 7.9 9.8 20.2 10 28.9 0 .3-.2.6-.4.7.1 3 .4 5.9.5 8.9 0-.1.1-.1.1-.2.7-.9 1.2-2.1 1.5-3.4.9-2.8.9-6 .5-8.8z" fill="#AE88F0"/>
            <path d="M250.016 91.709s4.7 1.3 11.2 3.3c.2-.6.9-1 1.3-.4.3.4.6.7.9 1.1h.2c-.9-1.3-1.4-2.1-1.4-2.1l-12.2-1.9z" fill="#7624F4"/>
            <path d="M272.216 103.409c1.9 1 3.9 1.8 6 2.6 2.6.9 5.2 1.8 7.7 2.8 2.4.9 4.8 1.8 6.9 3.3.9.6 1.8 1.4 2.6 2.2.6-3.4.9-5.4.9-5.4-7.3-4.5-21.8-9.6-32.7-13 .1.2.2.4.4.6 2.5 2.5 5.3 4.8 8.2 6.9z" fill="#AE88F0"/>
            <path d="m245.416 68.509-9.6 28.6c0 4.2 22.3 15.7 28.9 10.4 1.9-1.5 1.4-5.5-.4-9.8l-10.8-23.5-8.1-5.7z" fill="#E36380"/>
            <path d="m245.416 68.509-9.6 28.6c0 4.2 22.3 15.7 28.9 10.4 1.9-1.5 1.4-5.5-.4-9.8l-10.8-23.5-8.1-5.7z" fill="#FF9910"/>
            <path d="m255.216 58.209-8.5 9.7c-3.7 4.4-5 14.2-.8 18.1 3.4 3 4 3.5 9.4 5.4 4.5 1.6 8.6-1.3 11.4-6.9 3.6-7.1 4.9-14.7 5.3-18.8 1.1-9.3-8.3-14.9-16.8-7.5z" fill="#FF9910"/>
            <path d="M266.416 78.309c-1.1 2.4-2.4 5.2-4.5 6.9-1.8 1.5-4.1 2-6.5 2.1-3.9 0-8.1-1.5-11.3-4.1.4 1.1 1 2 1.8 2.7 3.4 3 4 3.5 9.4 5.4 4.5 1.6 8.6-1.3 11.4-6.9 3.6-7.1 4.9-14.7 5.3-18.8.2-2.3-.1-4.3-.9-6-.7 6.5-2 12.8-4.7 18.7z" fill="#EEC68D"/>
            <path d="M251.716 65.609c.3-1 .7-2 1.2-3 .9-1.8 1.8-4.7-1.5-4.8-4.9 0-9.2 9.9-5.1 12.9 3 2.3 4.7-2.5 5.4-5.1zM199.116 351.209l.1-.9h9.8v.9z" fill="#FF9910"/>
            <path d="M236.116 95.009s5.8 28.1 8.2 37.7c2.4 9.6-.9 144.3-3.3 164.9 0 0-25.1 2.8-47.5-14.4l19.2-174.4c-.1 0 4.3-10.8 23.4-13.8z" fill="#7624F4"/>
            <path d="M244.816 140.009c0 1.7 0 3.5-.1 5.2-.2 6.3-1.1 12.5-2.5 18.6-.8 3.2-1.7 6.4-2.3 9.6-.6 3.4-1 6.7-1.3 10.1-.6 6.7-.7 13.4-.9 20.1-.1 3.3-.3 6.7-.6 10-.3 3.4-.7 6.7-1 10-1.1 13.8-.1 27.7.7 41.5.6 10.9 1 21.8.2 32.6 2.4 0 3.8-.2 3.8-.2 2.2-18.2 5.1-127.2 4-157.5z" fill="#AE88F0"/>
            <path d="M235.116 290.709c-5.9-4.3-11.6-9.2-16.1-15-4.1-5.3-7.2-11.3-9.4-17.7-2.3-6.9-3.4-14.2-4-21.4-1.5-16.9-.4-33.9.9-50.7.4-5.3.8-10.5 1.4-15.7.5-4 .9-8.1.9-12.1 0-2.4 0-6.1-.7-9.3l-14.8 134.5c22.4 17.2 47.5 14.4 47.5 14.4.1-.8.2-1.8.3-2.9-2-1.3-4-2.7-6-4.1z" fill="#582ECD"/>
            <path d="M214.016 106.109s-12.2 11.6-21.2 36.2 0 92.4 0 92.4h5.7s32.5-82.8 35.4-100.8c2.8-18.1-19.9-27.8-19.9-27.8z" fill="#7624F4"/>
            <path d="M192.716 234.709s-1.7 8.7.7 13.3c2.2 4.2 2.8-1 3.2-4.8.4-3.8 1-5.4 1.2-3.5.3 2.2-.3 4.5.4 4.5 2.2 0 2.2-5.5.3-9.4-1.9-4.1-5.8-.1-5.8-.1z" fill="#FF9910"/>
            <path d="M188.816 171.509c-.6 28.7 3.9 63.2 3.9 63.2h5.7s12-30.7 22.1-58.8c-15.3 4.5-26-.3-31.7-4.4z" fill="#FF9910"/>
            <g transform="translate(264.005 94.383)">
                <path d="m.01 41.926 3-35c0-.4.3-.7.7-.9 1.7-.5 6.6-2.1 12.2-3.7 6.8-2 3.3-1.1 8.5-2.3.7-.2 1.8.8 1.7 1.5-.5 5.9-3.9 33.1-4.2 33.2l-20.7 8.2c-.7.1-1.3-.4-1.2-1z" fill="#2E1742"/>
                <path d="m5.91 16.326.6-6.9c.1-.8.6-1.6 1.4-1.9 5.8-2.5 17.2-5.5 17.4-5.6l-.2-.6c-.7.1-11.6 2.9-17.5 5.4-1 .4-1.7 1.4-1.9 2.6l-.6 6.9.8.1z" fill="#899ECD"/>
                <ellipse fill="#899ECD" transform="rotate(-85.614 9.33 11.172)" cx="9.331" cy="11.172" rx="2.3" ry="1.1"/>
            </g>
            <path d="M285.816 138.509s-8.7-8.6-10.7-13.3c-5.6-13.6 11-.4 11-.4l.7-4s4.1 5.2 9.2 11.6l-10.2 6.1z" fill="#FF9910"/>
            <path d="M211.716 177.909c-.5 1.6-1.1 3.3-1.6 4.9-3.1 9.6-6.4 19.1-9.3 28.8-1.4 4.8-2.9 9.5-3.6 14.5-.4 2.8-.6 5.7-.8 8.5h2s11.9-30.4 22-58.4c-2.9.8-5.7 1.5-8.7 1.7z" fill="#E17E35"/>
            <path d="M220.716 109.909c.2.8.4 1.5.6 2.3.9 4.4.9 8.9.8 13.3-.2 9.6-1.5 19.2-3.7 28.6-1.7 7.5-3.9 14.8-6.2 22.1 3-.3 5.9-1.1 8.9-1.8 6.2-17.5 11.6-33.7 12.7-40.5 1.9-11.5-6.7-19.6-13.1-24z" fill="#582ECD"/>
            <path d="M282.516 134.509c6.2 8 4.3 3.8 11.3 23.9 1.5 4.2 8.4 16.8 11.1 20.3 2.2 2.8 4.7 5.5 8 6.8 3.3 1.3 7.5 1 9.8-1.7 1.8-2 3.3-13.5 2.7-16.2-.6-2.7-2-5.1-3.4-7.4-6.1-10.1-13.9-11.3-21.2-20.5-1.8-2.3-3.8-6.9-6.1-8.7" fill="#FF9910"/>
            <path d="M283.616 129.409c-2.2-1.9-4.4-3.9-6.8-5.5-.8-.5-1.6-1-2.5-1.4.2.8.5 1.6.9 2.7 1.9 4.7 10.7 13.3 10.7 13.3l4-2.4c-1.8-2.5-4-4.7-6.3-6.7z" fill="#E17E35"/>
            <path d="M322.516 177.509c-2.7 1.3-5.8 1.2-8.6.2-4.2-1.4-7.1-4.5-9.2-8.2-1.2-2.2-2.2-4.5-3.2-6.7-1.1-2.6-2.2-5.1-3.3-7.7-1.1-2.6-2.1-5.1-3.2-7.7-1-2.6-2-5.2-3.1-7.7s-2.6-4.6-4.4-6.5l-4.9 1.4c6.2 8 4.3 3.8 11.3 23.9 1.5 4.2 8.4 16.8 11.1 20.3 2.2 2.8 4.7 5.5 8 6.8 3.3 1.3 7.5 1 9.8-1.7.9-1 1.7-4.5 2.2-8-.8.6-1.6 1.2-2.5 1.6z" fill="#E17E35"/>
        </g>
    </g>
</svg>
