<?xml version="1.0" encoding="UTF-8"?>
<svg width="104px" height="46px" viewBox="0 0 104 46" version="1.1" xmlns="http://www.w3.org/2000/svg" xmlns:xlink="http://www.w3.org/1999/xlink">
    <title>A8174F07-AE06-4F6A-99B4-2274BA06BE42</title>
    <defs>
        <polygon id="path-1" points="0 0 14 0 14 16 0 16"></polygon>
        <polygon id="path-3" points="0 0 46 0 46 46 0 46"></polygon>
    </defs>
    <g id="Page-1" stroke="none" stroke-width="1" fill="none" fill-rule="evenodd">
        <g id="D_Catalogo" transform="translate(-73.000000, -16.000000)">
            <g id="Group-19-Copy-9" transform="translate(73.000000, 16.000000)">
                <path d="M62.8787628,23.7439045 C62.8787628,21.5677558 61.3665713,19.9037983 59.3925346,19.9037983 C57.4184979,19.9037983 55.9063064,21.5677558 55.9063064,23.7439045 C55.9063064,25.8563609 57.4184979,27.5521645 59.3925346,27.5521645 C61.3665713,27.5521645 62.8787628,25.8563609 62.8787628,23.7439045 M55.8436183,30.0799469 L55.8436183,31.6802123 L51,31.6802123 L51,8 L56.029124,8 L56.029124,17.2167855 C57.2022878,16.1287112 58.6824955,15.4559628 60.4416014,15.4559628 C64.7287026,15.4559628 68,19.1673578 68,23.7439045 C68,28.3204512 64.7287026,32 60.4416014,32 C58.5903823,32 57.0167821,31.2954055 55.8436183,30.0799469" id="Fill-1" fill="#05C13F"></path>
                <path d="M75.1212372,23.9846006 C75.1212372,26.0891883 76.6334287,27.698428 78.6074654,27.698428 C80.5815021,27.698428 82.0936936,26.0891883 82.0936936,23.9846006 C82.0936936,21.9416105 80.5815021,20.301572 78.6074654,20.301572 C76.6334287,20.301572 75.1212372,21.9416105 75.1212372,23.9846006 M82.1563817,17.8569137 L82.1563817,16.3092717 L87,16.3092717 L87,31.6907283 L82.1563817,31.6907283 L82.1563817,30.1122875 C80.9832179,31.2877767 79.4096177,32 77.5583986,32 C73.2700181,32 70,28.4106513 70,23.9846006 C70,19.5893487 73.2700181,16 77.5583986,16 C79.4096177,16 80.9832179,16.71094 82.1563817,17.8569137" id="Fill-3" fill="#05C13F"></path>
                <g id="Group-7" transform="translate(90.000000, 16.000000)">
                    <mask id="mask-2" fill="white">
                        <use xlink:href="#path-1"></use>
                    </mask>
                    <g id="Clip-6"></g>
                    <polygon id="Fill-5" fill="#05C13F" mask="url(#mask-2)" points="0 12.7161689 7.13774597 4.57200067 0.518602844 4.57200067 0.518602844 0 13.5734808 0 13.5734808 3.50942767 6.77219421 11.4600367 14.0010119 11.4600367 14.0010119 16 0 16"></polygon>
                </g>
                <g id="Group-10">
                    <mask id="mask-4" fill="white">
                        <use xlink:href="#path-3"></use>
                    </mask>
                    <g id="Clip-9"></g>
                    <path d="M46,23.0000639 C46,35.7031938 35.7030374,46.0001278 22.9998722,46.0001278 C10.2979849,46.0001278 -0.000255571174,35.7031938 -0.000255571174,23.0000639 C-0.000255571174,10.2982118 10.2979849,0 22.9998722,0 C35.7030374,0 46,10.2982118 46,23.0000639" id="Fill-8" fill="#05C13F" mask="url(#mask-4)"></path>
                </g>
                <path d="M40.7546554,13.3770203 C44.5576793,21.2655955 44.2176738,31.6131456 34.3159597,36.4890945 C24.4142455,41.3650435 8.70095676,38.9238871 4.89793288,31.0353119 C1.09490899,23.1467368 9.99423673,10.9396822 19.8959509,6.06373331 C29.7964058,1.18651163 36.9516315,5.48844516 40.7546554,13.3770203" id="Fill-11" fill="#D8F475"></path>
                <path d="M37.1459343,30.6730578 C34.2389968,35.6513432 21.6535149,36.4775547 14.8377847,32.4016656 C8.02335227,28.324463 9.55987636,20.8885597 12.4668138,15.9102743 C15.3737513,10.9319888 21.5185499,7.79790204 28.3329823,11.8737911 C35.1487125,15.9509937 40.0528717,25.6947724 37.1459343,30.6730578" id="Fill-13" fill="#E10097"></path>
                <path d="M30.7101736,20.8579196 C31.604674,24.2408568 30.5621536,28.5080543 25.6991849,29.690737 C20.8349403,30.8721966 13.9928416,28.5215078 13.0983412,25.1385705 C12.2025648,21.7568563 17.5938119,18.6221967 22.4580565,17.4407371 C27.3210252,16.2580544 29.8156732,17.4749823 30.7101736,20.8579196" id="Fill-15" fill="#7946C8"></path>
                <path d="M26,22.5 C26,24.4330275 24.43274,26 22.4993577,26 C20.56726,26 19,24.4330275 19,22.5 C19,20.5669725 20.56726,19 22.4993577,19 C24.43274,19 26,20.5669725 26,22.5" id="Fill-17" fill="#FFFFFF"></path>
            </g>
        </g>
    </g>
</svg>