<svg width="140" height="62" viewBox="0 0 140 62" xmlns="http://www.w3.org/2000/svg" xmlns:xlink="http://www.w3.org/1999/xlink">
    <defs>
        <path id="a" d="M0 0h18.74v21.036H0z"/>
        <path id="c" d="M0 0h61.732v62H0z"/>
    </defs>
    <g fill="none" fill-rule="evenodd">
        <path d="M84.522 32.134c0-2.912-2.059-5.138-4.747-5.138-2.688 0-4.747 2.226-4.747 5.138 0 2.826 2.059 5.094 4.747 5.094 2.688 0 4.747-2.268 4.747-5.094m-9.58 8.476v2.14h-6.596V11.072h6.849v12.33c1.597-1.455 3.613-2.355 6.008-2.355 5.838 0 10.293 4.965 10.293 11.088 0 6.122-4.455 11.045-10.293 11.045-2.52 0-4.663-.943-6.26-2.57M100.675 32.64c0 2.767 2.059 4.883 4.747 4.883 2.688 0 4.747-2.116 4.747-4.883 0-2.686-2.059-4.842-4.747-4.842-2.688 0-4.747 2.156-4.747 4.842m9.58-8.056V22.55h6.595v20.223h-6.595v-2.075c-1.598 1.545-3.74 2.482-6.262 2.482-5.84 0-10.292-4.72-10.292-10.539 0-5.778 4.453-10.497 10.292-10.497 2.521 0 4.664.935 6.262 2.441" fill="#FFF"/>
        <g transform="translate(121.26 22.143)">
            <mask id="b" fill="#fff">
                <use xlink:href="#a"/>
            </mask>
            <path fill="#FFF" mask="url(#b)" d="M0 16.718 9.554 6.011H.694V0H18.17v4.614L9.065 15.067h9.677v5.969H0z"/>
        </g>
        <g>
            <mask id="d" fill="#fff">
                <use xlink:href="#c"/>
            </mask>
            <path d="M61.732 31c0 17.122-13.818 31-30.866 31C13.82 62 0 48.122 0 31 0 13.88 13.82 0 30.866 0c17.048 0 30.866 13.88 30.866 31" fill="#05C13F" mask="url(#d)"/>
        </g>
        <path d="M54.276 18.29c5.16 10.73 4.699 24.805-8.735 31.438-13.434 6.632-34.754 3.311-39.913-7.419-5.16-10.73 6.914-27.334 20.348-33.966 13.433-6.634 23.14-.783 28.3 9.947" fill="#D8F475"/>
        <path d="M49.565 42.774c-3.89 6.834-20.737 7.969-29.86 2.373-9.123-5.597-7.066-15.806-3.175-22.64 3.892-6.835 12.117-11.137 21.239-5.542 9.123 5.598 15.688 18.975 11.796 25.809" fill="#E10097"/>
        <path d="M40.397 28.507c1.205 4.61-.2 10.424-6.752 12.036-6.553 1.61-15.772-1.593-16.977-6.203-1.207-4.608 6.057-8.88 12.61-10.49 6.553-1.611 9.914.047 11.119 4.657" fill="#7946C8"/>
        <path d="M36.378 32.107c0 2.446-1.975 4.429-4.41 4.429-2.434 0-4.409-1.983-4.409-4.429s1.975-4.428 4.409-4.428c2.435 0 4.41 1.982 4.41 4.428" fill="#FFF"/>
    </g>
</svg>
